<?xml version="1.0" encoding="UTF-8" standalone="no"?>
<svg
   xmlns:dc="http://purl.org/dc/elements/1.1/"
   xmlns:cc="http://creativecommons.org/ns#"
   xmlns:rdf="http://www.w3.org/1999/02/22-rdf-syntax-ns#"
   xmlns:svg="http://www.w3.org/2000/svg"
   xmlns="http://www.w3.org/2000/svg"
   xmlns:inkscape="http://www.inkscape.org/namespaces/inkscape"
   height="120"
   width="500"
   version="1.1"
   viewBox="0 0 1000 120">
 
 
    
  <g 
     transform="translate(0 -932.36)"
     >
    <path 
       d="m10.155 1040.2c-1.5954-0.6712-0.86454-92.568 0.74449-93.607 0.69053-0.44598 11.831-0.66632 24.756-0.48965 21.273 0.2908 24.163 0.53823 30.5 2.6111 14.638 4.7884 18.43 8.7654 18.478 19.38 0.0258 5.6618-0.96634 7.8784-5.7813 12.916-1.9617 2.0524-3.371 3.8524-3.1318 4 0.23926 0.1476 3.0259 1.5628 6.1925 3.1449 10.889 5.4401 14.449 12.37 11.371 22.134-3.1382 9.9557-13.154 19.572-25.42 24.407-9.6294 3.7956-25.54 6.0851-41.708 6.0017-8.25-0.043-15.45-0.2668-16-0.4982zm46-3.8229c21.731-4.9491 36.5-18.281 36.5-32.948 0-3.4119-0.6385-4.6051-4.385-8.1949-2.4117-2.3108-6.9432-5.4118-10.07-6.8909l-5.6849-2.6894 3.9851-4.3233c5.8047-6.2974 7.4652-9.9956 6.7198-14.966-1.3398-8.9347-5.8356-12.714-19.693-16.554-6.3702-1.7653-10.287-2.0318-29.852-2.0318l-22.52 0.00008v45.613 45.613l19-0.5172c11.982-0.3261 21.586-1.1059 26-2.1113zm-13.5-28.492c0-8.5379 0.37161-9.107 5.9469-9.107 3.585 0 8.0594 3.5227 8.0308 6.3226-0.0287 2.8139-2.5848 5.9569-6.9778 8.58-6.2965 3.7598-7 3.1774-7-5.7956zm5.3157 4.7681c3.3775-1.7396 6.6843-5.0643 6.6843-6.7207 0-2.6934-3.1774-5.1544-6.655-5.1544h-3.345v6.5c0 3.575 0.25458 6.5 0.56574 6.5s1.5487-0.5062 2.75-1.1249zm-4.8986-29.23c-0.28605-0.74543-0.38442-4.2329-0.21861-7.75l0.30147-6.3947 3.2776 0.15045c7.0576 0.32395 8.4067 5.8911 2.8543 11.778-3.5726 3.788-5.3661 4.4275-6.2148 2.2159zm7.5829-8.1318c0-2.5875-1.7919-4.5129-4.2-4.5129-1.5394 0-1.8 0.89582-1.8 6.1871v6.1871l3-2.8742c1.65-1.5808 3-3.825 3-4.9871z"
       id="path6" />
  </g>
  <path
     style="opacity:1;fill:#ffffff;fill-opacity:1"
     z-index="-1"
     d="m 11.457627,61.024978 0,-45.254238 20.225204,0 c 21.57303,0 26.01489,0.312457 33.033659,2.323708 13.034273,3.735013 18.069874,8.592627 18.148276,17.506801 0.04169,4.743406 -1.093368,7.010824 -6.594458,13.172932 -2.087654,2.338506 -3.789579,4.392698 -3.782064,4.564872 0.0075,0.172174 1.544954,0.997619 3.416522,1.834323 6.431507,2.875274 13.915739,8.623568 15.6867,12.048234 1.047514,2.025661 0.883048,7.060744 -0.350349,10.72619 -4.531256,13.466059 -21.746288,24.53837 -41.647897,26.78696 -5.125188,0.57907 -25.553009,1.51635 -33.432203,1.53395 l -4.70339,0.0105 0,-45.254232 z m 36.437847,21.503227 c 5.26827,-2.579619 8.81639,-6.509654 8.81639,-9.765366 0,-3.531458 -5.36012,-7.040896 -9.961692,-6.522234 -3.821157,0.430703 -4.021358,0.876778 -4.021358,8.960115 0,5.203617 0.180698,7.239803 0.697853,7.863707 0.919649,1.109486 1.168915,1.079578 4.468807,-0.536222 z m 0.586199,-32.597526 c 6.58414,-6.413153 5.739939,-12.166974 -1.915501,-13.055482 -1.725375,-0.200251 -3.240387,-0.260749 -3.366695,-0.134442 -0.557498,0.557498 -0.804146,12.92203 -0.284096,14.24185 0.854781,2.169329 2.59722,1.840041 5.566292,-1.051926 z"
     id="path4164"
     inkscape:connector-curvature="0" />
  <g transform="translate(50 -932.36)">
  <path  d="m26.488 1033c-1.0981-1.3231-1.0283-4.1654 0.41313-16.835 1.6307-14.333 1.6366-16.967 0.09921-44.107-1.1358-20.051-1.3176-29.246-0.59527-30.116 0.74877-0.90221 7.5435-1.4313 24.279-1.8906 12.781-0.35079 27.354-0.91395 32.384-1.2514 8.3578-0.56081 9.1939-0.45285 9.7083 1.2537 1.1642 3.8617 3.7337 25.417 3.1436 26.372-0.33843 0.5476-4.5263 0.99883-9.3063 1.0027-4.78 0.004-11.728 0.29398-15.441 0.6446-6.5871 0.62212-6.75 0.70555-6.75 3.4579v2.8204l10.25 0.28499 10.25 0.28498 0.28383 10.75 0.28383 10.75h-8.5996c-9.7669 0-12.468 0.98255-12.468 4.5352 0 3.0162 0.56193 3.0462 15.825 0.847 6.4308-0.9266 11.674-1.2538 12.133-0.757 0.44439 0.4811 0.14903 5.8248-0.65635 11.875-0.80538 6.05-1.6719 12.856-1.9257 15.125l-0.46135 4.1249-26.207 0.6352c-14.414 0.3494-28.258 0.8941-30.764 1.2105-3.4621 0.4371-4.8741 0.1928-5.8778-1.0166zm37.435-2.3895 24-0.6893 0.6143-8c0.33786-4.4 1.1229-9.8 1.7444-12 1.9166-6.7836 1.6197-7.7963-2.1087-7.1928-1.7875 0.2894-5.3249 1.0367-7.8609 1.6608s-7.486 0.9991-11 0.8333l-6.3891-0.3013v-4.5-4.5l10.287-0.28539 10.287-0.28539-0.28706-9.2146-0.28706-9.2146-9.8214-0.1547c-5.4018-0.0851-10.058-0.39124-10.347-0.68034-1.0085-1.0085-0.7194-7.6772 0.38056-8.7771 0.6617-0.66171 7.235-1.3258 16.305-1.6473l15.196-0.53862-0.6103-3.601c-0.33566-1.9805-1.1632-7.5755-1.8389-12.433l-1.2286-8.8323-3.5177 0.55764c-1.9347 0.30671-15.982 0.85986-31.217 1.2292-19.831 0.48082-27.828 1.007-28.152 1.8522-0.24919 0.64937 0.18202 13.296 0.95824 28.103 1.3812 26.348 1.2576 34.985-0.72531 50.687-0.5393 4.2708-0.68267 8.247-0.31861 8.8361 0.4237 0.6855 2.691 0.8382 6.2997 0.4243 3.1008-0.3557 16.438-0.957 29.638-1.3361z"/>
 </g>
 <g transform="translate(100 -932.36)">

  <path  d="m69.945 1040.1c-0.73968-0.6121-2.6064-3.3628-4.1482-6.1128s-6.2257-9.725-10.409-15.5l-7.6053-10.5-0.5 14-0.5 14-16.347 0.2752-16.347 0.2752 0.62776-4.7752c1.9052-14.492 5.7164-55.664 6.2542-67.562 0.34273-7.5828 0.91834-13.969 1.2792-14.192 1.4957-0.92438 24.916-3.5029 26.455-2.9126 0.91938 0.35281 2.8354 2.9382 4.2579 5.7452 3.2572 6.4279 15.288 25.647 16.055 25.647 0.3152 0 0.30411-6.289-0.02463-13.976-0.43107-10.079-0.27489-14.175 0.56021-14.691 0.63685-0.3936 4.8354-0.60049 9.3301-0.45977s10.983-0.25382 14.418-0.87676c3.4353-0.62294 6.5754-0.76454 6.978-0.31467 0.40259 0.44987 0.41751 8.018 0.0332 16.818l-0.69882 16-0.16521-15.634-0.16521-15.634-13.25 0.46447c-7.2875 0.25545-13.635 0.55623-14.105 0.66839-0.46998 0.11217-0.8028 6.4883-0.7396 14.169 0.11247 13.668-0.5451 17.424-2.8057 16.027-1.4627-0.90399-6.2989-8.5309-13.572-21.404-3.2137-5.688-6.3348-10.512-6.9356-10.721-0.60088-0.20829-6.2675 0.17628-12.593 0.8546l-11.5 1.2333-0.6866 10.987c-1.2538 20.063-2.8854 38.795-4.869 55.895-1.0787 9.2995-1.845 17.011-1.7028 17.137 0.14215 0.126 6.7083-0.01 14.591-0.3011l14.333-0.5301-0.18142-13.107c-0.22425-16.201-0.27872-15.607 1.4307-15.607 1.5905 0 15.87 18.992 20.657 27.475 2.8232 5.0023 3.4395 5.5254 6.5117 5.5254 1.8664 0 6.6609-0.862 10.655-1.9155 3.9936-1.0536 8.9487-2.199 11.011-2.5454l3.75-0.6298v-7.6213c0-4.1918 0.16545-7.4339 0.36768-7.2047 0.77678 0.8803 1.3479 13.759 0.65956 14.873-0.72363 1.1709-14.786 5.1825-24.101 6.8756-3.3748 0.6134-5.3415 0.5448-6.2641-0.2187z"/>
 </g>
 <g transform="translate(175 -932.36)">

  <path  d="m69.945 1040.1c-0.73968-0.6121-2.6064-3.3628-4.1482-6.1128s-6.2257-9.725-10.409-15.5l-7.6053-10.5-0.5 14-0.5 14-16.347 0.2752-16.347 0.2752 0.62776-4.7752c1.9052-14.492 5.7164-55.664 6.2542-67.562 0.34273-7.5828 0.91834-13.969 1.2792-14.192 1.4957-0.92438 24.916-3.5029 26.455-2.9126 0.91938 0.35281 2.8354 2.9382 4.2579 5.7452 3.2572 6.4279 15.288 25.647 16.055 25.647 0.3152 0 0.30411-6.289-0.02463-13.976-0.43107-10.079-0.27489-14.175 0.56021-14.691 0.63685-0.3936 4.8354-0.60049 9.3301-0.45977s10.983-0.25382 14.418-0.87676c3.4353-0.62294 6.5754-0.76454 6.978-0.31467 0.40259 0.44987 0.41751 8.018 0.0332 16.818l-0.69882 16-0.16521-15.634-0.16521-15.634-13.25 0.46447c-7.2875 0.25545-13.635 0.55623-14.105 0.66839-0.46998 0.11217-0.8028 6.4883-0.7396 14.169 0.11247 13.668-0.5451 17.424-2.8057 16.027-1.4627-0.90399-6.2989-8.5309-13.572-21.404-3.2137-5.688-6.3348-10.512-6.9356-10.721-0.60088-0.20829-6.2675 0.17628-12.593 0.8546l-11.5 1.2333-0.6866 10.987c-1.2538 20.063-2.8854 38.795-4.869 55.895-1.0787 9.2995-1.845 17.011-1.7028 17.137 0.14215 0.126 6.7083-0.01 14.591-0.3011l14.333-0.5301-0.18142-13.107c-0.22425-16.201-0.27872-15.607 1.4307-15.607 1.5905 0 15.87 18.992 20.657 27.475 2.8232 5.0023 3.4395 5.5254 6.5117 5.5254 1.8664 0 6.6609-0.862 10.655-1.9155 3.9936-1.0536 8.9487-2.199 11.011-2.5454l3.75-0.6298v-7.6213c0-4.1918 0.16545-7.4339 0.36768-7.2047 0.77678 0.8803 1.3479 13.759 0.65956 14.873-0.72363 1.1709-14.786 5.1825-24.101 6.8756-3.3748 0.6134-5.3415 0.5448-6.2641-0.2187z"/>
 </g>
  <g transform="translate(250,-952.36223)">
  
    <path
       style="fill:#000000"
       d="m 36.668105,1048.4753 c -1.000309,-0.6182 -0.794324,-2.7482 0.976691,-10.0994 2.499097,-10.3734 4.145727,-19.9069 4.1545,-24.0534 0.005,-2.3865 -0.884053,-3.1855 -6.93538,-6.2329 -12.654239,-6.3726 -17.959842,-16.40996 -18.80665,-35.57922 -0.450401,-10.19576 -0.29981,-11.75995 1.28473,-13.34449 1.513093,-1.51309 2.671751,-1.67301 7.379013,-1.01843 3.071244,0.42708 10.759079,0.8071 17.084079,0.8445 9.627523,0.0569 11.464368,0.31222 11.281162,1.56798 -0.120361,0.825 -0.722442,3.96813 -1.337959,6.98474 -1.294403,6.34378 -0.08558,12.07333 3.326175,15.76526 6.001813,6.49469 10.714354,-1.35324 10.725045,-17.86071 l 0.0056,-8.61071 5.25,-0.6306 c 2.8875,-0.34683 11.448638,-0.63451 19.024751,-0.63929 l 13.774748,-0.009 1.05586,2.75 c 1.41929,3.69654 0.27625,13.69722 -2.77167,24.25 -3.800102,13.15707 -8.001998,19.03607 -18.835481,26.35337 l -4.77276,3.2237 0.196206,9.7276 c 0.107914,5.3502 0.844688,12.2173 1.637276,15.2603 2.070569,7.9494 1.895335,10.3027 -0.80893,10.8635 -4.130103,0.8565 -41.600696,1.2818 -42.886983,0.4869 z m 43.117308,-3.6654 c -0.01082,-0.9625 -0.670121,-5.35 -1.465112,-9.75 -0.79499,-4.4 -1.461137,-11.6697 -1.480325,-16.1549 l -0.03489,-8.155 4.507735,-2.6417 c 12.634569,-7.4044 20.438389,-22.47257 22.127399,-42.72527 l 0.65242,-7.82309 -18.54895,0 -18.548948,0 0.534108,5.89024 c 1.638776,18.07271 -5.604874,29.3825 -13.659801,21.32757 -3.655427,-3.65543 -4.646007,-8.67809 -3.436861,-17.42636 l 0.934122,-6.75845 -10.544686,0.0849 c -5.799577,0.0467 -13.096424,-0.23388 -16.215216,-0.62355 l -5.67053,-0.70849 -0.697711,3.71913 c -0.383742,2.04552 -0.46811,7.74599 -0.187486,12.66772 0.871078,15.27741 8.307443,27.25885 19.911434,32.08125 2.631864,1.0938 5.049096,2.8201 5.371625,3.8363 0.762092,2.4012 -1.014026,15.0451 -3.537863,25.1857 -1.094935,4.3993 -1.990791,8.387 -1.990791,8.8614 0,0.4745 9.45,0.8626 21,0.8626 19.340828,0 20.998446,-0.1382 20.980325,-1.75 z"
       inkscape:connector-curvature="0" />
   
  </g>
 
</svg>
