<?xml version="1.0" encoding="UTF-8" standalone="no"?>
<svg id="svg2" xmlns:rdf="http://www.w3.org/1999/02/22-rdf-syntax-ns#" xmlns="http://www.w3.org/2000/svg" height="120" width="115" version="1.1" xmlns:cc="http://creativecommons.org/ns#" xmlns:xlink="http://www.w3.org/1999/xlink" viewBox="0 0 115 120" xmlns:dc="http://purl.org/dc/elements/1.1/">
 <g id="layer1" transform="translate(0 -932.36)">
  <path id="path4341" d="m1.5195 1029.9c-1.4043-1.4043-0.58086-5.8193 4.0615-21.776 3.4828-11.971 9.1853-40.419 10.612-52.94 1.812-15.902 1.1466-14.95 10.988-15.711 4.6307-0.35794 11.09-1.1454 14.353-1.75 9.4183-1.7447 9.1444-1.8814 13.015 6.4959 1.93 4.1773 4.2759 10.027 5.2129 13 0.93705 2.9727 2.0241 5.4048 2.4157 5.4048 0.39157 0 2.1661-4.6125 3.9434-10.25 5.0109-15.894 3.3832-14.75 20.983-14.75 14.715 0 14.965 0.0366 15.399 2.25 0.24264 1.2375 1.1291 8.55 1.9698 16.25 2.8001 25.644 6.6675 51.915 8.7345 59.332 1.1239 4.0328 1.824 7.9041 1.5558 8.6029-0.28222 0.7355-3.1566 1.5465-6.8254 1.9258-3.4858 0.3604-10.079 1.5516-14.651 2.6471-10.095 2.4187-13.769 2.522-14.58 0.41-0.33384-0.87-0.60699-5.37-0.60699-10 0-4.9455-0.41253-8.4182-1-8.4182-0.55 0-1 0.739-1 1.6422s-0.91906 4.7282-2.0423 8.5c-1.8741 6.2929-2.2654 6.8567-4.75 6.845-1.4892-0.01-5.9151 0.7372-9.8352 1.6539-3.9202 0.9168-7.8341 1.3957-8.6976 1.0644-1.6108-0.6182-2.4769-3.3743-4.6213-14.706-1.9164-10.127-2.6675-9.8051-3.5513 1.5209-0.96877 12.414-0.90913 12.281-5.7561 12.901-9.5547 1.2223-34.06 1.1212-35.327-0.1458zm36.858-2.1886c0.42726-0.4076 1.416-5.6102 2.1971-11.561 2.1569-16.432 4.2658-16.858 7.4332-1.4993 2.7691 13.427 2.7012 13.305 6.9908 12.57 1.9811-0.3392 6.2035-0.9028 9.383-1.2525 3.1796-0.3498 6.0407-1.0561 6.3581-1.5697 0.31741-0.5136 1.5409-4.6049 2.719-9.0918 1.4648-5.579 2.6542-8.2562 3.7626-8.4689 2.1799-0.4183 2.8491 2.5164 2.8656 12.567 0.01092 6.6251 0.33043 8.4029 1.5975 8.8892 0.87114 0.3342 5.9336-0.351 11.25-1.5229 5.3164-1.1718 12.053-2.4207 14.971-2.7752 4.3415-0.5276 5.1895-0.9378 4.6701-2.2586-1.4297-3.6353-9.0508-56.012-10.966-75.364l-0.66801-6.75h-14.214-14.214l-2.7854 8.75c-6.5572 20.599-7.5686 21.455-11.806 9.9952-6.5358-17.678-7.6823-20.238-8.9781-20.051-0.7388 0.10651-7.1933 0.92492-14.343 1.8187-7.15 0.89376-13.283 1.9316-13.629 2.3063-0.34584 0.37473-1.3807 5.8563-2.2998 12.181-2.8583 19.672-8.0701 43.141-14.545 65.497-1.1145 3.8483-2.0266 7.4483-2.0269 8-0.0004922 1.1669 35.04 0.7714 36.277-0.4094z"/>
 </g>
</svg>
