<?xml version="1.0" encoding="UTF-8" standalone="no"?>

<svg  xmlns:rdf="http://www.w3.org/1999/02/22-rdf-syntax-ns#" xmlns="http://www.w3.org/2000/svg" height="120" width="100" version="1.1" xmlns:cc="http://creativecommons.org/ns#" xmlns:xlink="http://www.w3.org/1999/xlink" viewBox="0 0 100 120" xmlns:dc="http://purl.org/dc/elements/1.1/">

 <g transform="translate(0 -932.36)">
  <path  d="m3.7436 1037.5c-0.3509-0.9144-0.1224-9.3715 0.50776-18.794 2.2781-34.061 2.39-39.348 1.1333-53.532-1.0687-12.062-1.0485-14.443 0.13234-15.568 1.0223-0.97407 6.193-1.4219 19.394-1.6797l18-0.35152 0.27908 13.882 0.27908 13.882 4.5539-0.62418c2.5046-0.34329 5.0053-0.90316 5.557-1.2442 0.61196-0.37821 0.87209-5.3034 0.66707-12.63-0.27696-9.8975-0.07223-12.149 1.1639-12.799 1.8419-0.96909 32.64-3.3072 33.835-2.5686 0.47243 0.29198 1.1762 12.134 1.5639 26.317 0.65936 24.119 1.4814 38.173 3.1957 54.632 0.85758 8.2338 0.48516 8.6171-8.3938 8.6387-3.9131 0.01-7.5121 0.6479-9.5 1.6851-2.2523 1.1752-5.8665 1.6937-12.2 1.75l-9 0.08-0.09553-15-0.09553-15-6.2041 0.1c-3.4122 0.055-6.6437 0.5392-7.1811 1.0766-0.62902 0.629-0.65496 5.5802-0.07281 13.9 0.49732 7.1079 0.62181 13.205 0.27663 13.549-0.34517 0.3439-8.8467 0.926-18.892 1.2935-16.485 0.6031-18.327 0.5062-18.903-0.9944zm20.667-0.9245c13.218 0 15.485-0.2229 15.4-1.5138-1.9066-29.001-2.1993-27.912 7.7163-28.708 8.4361-0.6772 9.8912 0.5831 9.8634 8.5427-0.01089 3.1232-0.45575 8.6927-0.98857 12.377-0.53282 3.6839-0.68531 7.4366-0.33888 8.3394 0.72355 1.8856 3.5746 1.7369 17.347-0.9045 4.675-0.8966 10.836-1.6308 13.691-1.6316 2.855-0.0007 5.4307-0.3892 5.7237-0.8633 0.29301-0.4741-0.12057-4.9014-0.91908-9.8385-1.2968-8.0181-3.4731-50.816-3.4894-68.62l-0.0062-6.8203-14.25 0.6269c-21.001 0.92391-18.873-0.76491-18.107 14.371 0.73394 14.501 1.2677 13.511-7.8953 14.655-7.6577 0.95676-8.044 0.081-7.1401-16.187l0.70174-12.63-4.4046 0.80562c-2.4225 0.44309-10.255 1.0742-17.405 1.4025l-13 0.59691 0.18433 6.5c0.44001 15.516 0.38589 45.914-0.089917 50.5-2.4857 23.961-2.7267 28.8-1.4724 29.575 0.70538 0.4359 1.754 0.4848 2.3303 0.1086 0.57626-0.3762 8.0227-0.684 16.548-0.684z"/>
 </g>
</svg>
