<?xml version="1.0" encoding="UTF-8" standalone="no"?>
<svg  xmlns:rdf="http://www.w3.org/1999/02/22-rdf-syntax-ns#" xmlns="http://www.w3.org/2000/svg" height="120" width="100" version="1.1" xmlns:cc="http://creativecommons.org/ns#" xmlns:xlink="http://www.w3.org/1999/xlink" viewBox="0 0 100 120" xmlns:dc="http://purl.org/dc/elements/1.1/">

 <g transform="translate(0 -932.36)">
  <path  d="m20.217 1040.4c-0.03336-0.1375-0.14586-21.062-0.25-46.5l-0.18935-46.25 6.5 0.005c3.575 0.003 12.244-0.53076 19.264-1.1855 9.4379-0.88026 13.057-0.898 13.887-0.0681 0.82993 0.82993 0.69484 5.895-0.51838 19.436-1.6022 17.882-2.3173 37.462-1.4015 38.378 0.25182 0.2519 6.1092-0.062 13.016-0.6975 6.9072-0.6355 13.337-0.8567 14.289-0.4916 1.4674 0.5631 1.6103 1.3817 0.9412 5.3941-0.43381 2.6017-1.0563 10.13-1.3832 16.73l-0.59447 12-19.5 0.6537c-10.725 0.3596-23.87 1.1471-29.211 1.75-9.394 1.0606-14.724 1.3643-14.85 0.8463zm37.422-3.3466 24.861-0.6674-0.62403-4.7042c-0.5496-4.1431 0.40704-15.205 2.0134-23.282l0.54695-2.75h-12.998c-7.1487 0-13.709-0.2732-14.579-0.607-1.328-0.5096-1.5818-2.6534-1.5818-13.36 0-7.0141 0.68932-19.627 1.5318-28.028 0.84251-8.4012 1.3113-15.496 1.0417-15.765-0.74738-0.74739-4.4093-0.53909-11.574 0.65832-3.575 0.59752-10.588 1.0898-15.583 1.094-4.9958 0.004-9.3151 0.23928-9.5983 0.52251-0.28323 0.28322-0.12847 2.8707 0.34391 5.75 1.0855 6.6164 1.2758 50.789 0.29762 69.086l-0.74047 13.851 5.8903-0.5653c3.2397-0.3109 17.078-0.8656 30.752-1.2327z"/>
 </g>
</svg>
