<?xml version="1.0" encoding="UTF-8" standalone="no"?>

<svg id="svg2" xmlns:rdf="http://www.w3.org/1999/02/22-rdf-syntax-ns#" xmlns="http://www.w3.org/2000/svg" height="100" width="115" version="1.1" xmlns:cc="http://creativecommons.org/ns#" xmlns:xlink="http://www.w3.org/1999/xlink" viewBox="0 0 115 99.999997" xmlns:dc="http://purl.org/dc/elements/1.1/">

 <g id="layer1" transform="translate(0 -952.36)">

  <path id="path4243" d="m38.589 1047.7c-10.125-3.6181-19.695-13.238-22.161-22.278-2.8421-10.416-4.0928-21.544-4.0844-36.342 0.01051-18.46 1.6225-28.567 4.6873-29.389 1.1968-0.321 9.0527-0.58979 17.457-0.5973 12.064-0.0108 15.393 0.27627 15.81 1.3634 0.29064 0.75738-0.39849 6.1802-1.5314 12.051-3.3913 17.573-2.5853 28.417 2.5675 34.541 5.8788 6.9866 9.7066 1.885 12.29-16.38 0.65934-4.6617 0.6245-10.622-0.10706-18.313-0.681-7.1595-0.73288-11.754-0.13944-12.347 0.51979-0.51979 8.062-2.1074 16.761-3.528 19.515-3.1871 19.22-3.3211 17.642 8.0298-1.4118 10.15-1.3823 56.159 0.04471 69.822 1.3612 13.033 0.8165 14.284-5.8205 13.375-2.3542-0.3226-7.9318-0.095-12.395 0.5053-8.6807 1.1683-12.902 0.3139-12.902-2.6111 0-1.9643-0.01191-1.9627-7 0.9786-6.6901 2.8158-15.12 3.2627-21.118 1.1194zm22.925-4.0216c5.8057-2.942 7.193-2.7376 7.193 1.0594 0 2.5317 0.01841 2.5369 6.25 1.755 3.4375-0.4313 9.6902-0.7026 13.895-0.6029 5.3297 0.1263 7.7823-0.1959 8.0987-1.0641 0.24962-0.6848-0.20811-6.6452-1.0172-13.245-1.2218-9.9668-1.3011-17.252-0.46797-43 0.55168-17.05 0.68327-31.351 0.29241-31.78-0.5925-0.65026-21.352 2.0813-28.728 3.78-2.1336 0.49141-2.1658 0.75631-1.6107 13.251 0.92645 20.851-1.7915 33.813-7.8845 37.601-2.6647 1.6566-6.3488-0.6789-9.4688-6.0028-2.6123-4.4576-2.781-5.4345-2.6425-15.305 0.08138-5.7991 0.85342-14.144 1.7156-18.544 0.86222-4.4 1.5677-8.5625 1.5678-9.25 0.00013-0.94757-3.845-1.25-15.893-1.25-14.206 0-15.967 0.1858-16.586 1.75-0.38098 0.9625-1.1774 7.9657-1.7698 15.563-1.2955 16.614-0.05575 32.079 3.5692 44.522 1.997 6.8548 3.2046 9.1285 6.8036 12.811 11.088 11.344 24.327 14.214 36.683 7.9531z"/>
 </g>
</svg>
