<?xml version="1.0" encoding="UTF-8" standalone="no"?>
<svg
   xmlns:dc="http://purl.org/dc/elements/1.1/"
   xmlns:cc="http://creativecommons.org/ns#"
   xmlns:rdf="http://www.w3.org/1999/02/22-rdf-syntax-ns#"
   xmlns:svg="http://www.w3.org/2000/svg"
   xmlns="http://www.w3.org/2000/svg"
   xmlns:xlink="http://www.w3.org/1999/xlink"
   xmlns:sodipodi="http://sodipodi.sourceforge.net/DTD/sodipodi-0.dtd"
   xmlns:inkscape="http://www.inkscape.org/namespaces/inkscape"
   width="115"
   height="100"
   viewBox="0 0 115 99.999997"
   id="svg2"
   version="1.1"

>
 
  <g transform="translate(0,-952.36223)">
  
    <path
       style="fill:#000000"
       d="m 68.609444,1047.0157 c -0.422291,-0.275 -2.045051,-4.4375 -3.606133,-9.25 -1.561082,-4.8125 -3.146718,-8.75 -3.523634,-8.75 -0.929153,0 -3.365594,6.366 -4.845771,12.6611 l -1.213537,5.1612 -19.671577,-0.491 c -10.819367,-0.27 -20.234077,-0.6659 -20.921577,-0.8797 -2.394264,-0.7448 -1.203501,-3.6325 6.084957,-14.7565 10.236988,-15.6244 17.915043,-29.438 17.915043,-32.23106 0,-3.47047 -3.865158,-9.45356 -15.158093,-23.46405 -6.042205,-7.49621 -10.078728,-13.40068 -10.083669,-14.75 -0.0078,-2.13557 0.385911,-2.25293 7.741762,-2.30752 4.2625,-0.0316 12.925,-0.86682 19.25,-1.85597 6.325,-0.98915 11.989599,-1.6181 12.587998,-1.39766 0.598399,0.22044 2.148842,3.78342 3.44543,7.91774 1.296587,4.13432 2.680526,7.71662 3.07542,7.96068 0.394895,0.24406 2.053957,-3.04623 3.686807,-7.31176 l 2.968817,-7.75551 11.867764,0.34252 c 6.52727,0.18839 12.542764,0.72781 13.367764,1.19872 0.852692,0.48671 -3.734924,0.59925 -10.630842,0.2608 -11.999645,-0.58895 -12.14765,-0.56947 -13.684832,1.80129 -0.854694,1.31817 -2.092266,4.64667 -2.750159,7.39667 -2.429221,10.15416 -5.863415,9.88718 -9.029452,-0.70197 -1.200116,-4.01392 -2.554065,-7.77538 -3.008778,-8.35881 -0.577364,-0.7408 -4.833982,-0.53335 -14.111343,0.68773 -7.306527,0.96168 -15.422094,1.77653 -18.034594,1.81078 -2.6125,0.0342 -4.75,0.46729 -4.75,0.96231 0,0.49503 3.0375,4.5841 6.75,9.08683 12.615314,15.30056 13.508901,16.5119 15.869973,21.51313 1.298269,2.75 2.364885,5.8876 2.370258,6.97245 0.01166,2.35396 -9.804562,20.15616 -18.650242,33.82316 -3.486994,5.3876 -6.339989,10.2251 -6.339989,10.75 0,0.5556 5.327825,0.9574 12.75,0.9615 7.0125,0 15.685983,0.2845 19.274407,0.6235 l 6.524407,0.6165 1.241403,-5.8736 c 1.426365,-6.7486 4.656035,-14.3735 6.088205,-14.3735 0.947876,0 6.248934,12.6749 7.671384,18.3424 0.695175,2.7698 0.778899,2.7983 5.827751,1.9839 2.817344,-0.4545 11.053566,-0.706 18.302717,-0.559 8.461561,0.1716 13.414051,-0.1109 13.833271,-0.7892 0.35915,-0.5811 -1.81221,-5.4264 -4.82524,-10.7674 -8.193,-14.5229 -17.688305,-36.14547 -17.688305,-40.27953 0,-2.59961 9.072212,-19.17611 14.210335,-25.96474 2.78499,-3.6796 3.83493,-5.9493 3.51831,-7.6056 -0.29553,-1.54599 0.0186,-2.36084 0.91003,-2.36084 2.68523,0 1.3811,5.29206 -2.60525,10.57195 -2.181616,2.88953 -6.279105,9.58174 -9.105532,14.87157 -4.195604,7.85232 -5.027201,10.20883 -4.530158,12.83717 0.764054,4.04029 11.719095,27.52792 17.92657,38.43462 5.14906,9.047 5.54859,10.7472 2.86329,12.1843 -1.85659,0.9936 -37.769496,2.0029 -39.155366,1.1004 z"
       id="path4282"
       inkscape:connector-curvature="0" />
  </g>
</svg>
