<?xml version="1.0" encoding="UTF-8" standalone="no"?>


<svg
   xmlns:dc="http://purl.org/dc/elements/1.1/"
   xmlns:cc="http://creativecommons.org/ns#"
   xmlns:rdf="http://www.w3.org/1999/02/22-rdf-syntax-ns#"
   xmlns:svg="http://www.w3.org/2000/svg"
   xmlns="http://www.w3.org/2000/svg"
   xmlns:xlink="http://www.w3.org/1999/xlink"
   xmlns:inkscape="http://www.inkscape.org/namespaces/inkscape"
   width="100"
   height="120"
   viewBox="0 0 100 120"
   id="svg2"
   version="1.1">
  
  <g transform="translate(0,-932.36213)">
    
    <path
       style="fill:#000000"
       d="m 21.404185,1015.445 c 0.452554,-4.056 0.794524,-9.3996 0.759933,-11.8746 -0.473071,-33.84854 -0.454007,-51.16361 0.05725,-51.99083 0.36602,-0.59223 5.815533,-1.00914 13.190799,-1.00914 6.911915,0 16.722044,-0.70823 21.800287,-1.57385 5.078244,-0.86562 10.758983,-1.42812 12.623866,-1.25 l 3.390696,0.32385 -0.348424,10.5 c -0.191633,5.775 -0.564515,10.725 -0.828626,11 -0.264112,0.275 -5.057321,0.725 -10.651576,1 l -10.171374,0.5 -0.313358,3.25 c -0.352209,3.65294 -0.437461,3.62509 6.860825,2.241 8.481681,-1.60852 8.740216,-1.34221 8.531584,8.78809 l -0.179605,8.72091 -7.191625,0.29365 c -7.830127,0.31971 -7.58429,0.0977 -8.533783,7.70632 -0.219807,1.7614 -0.436235,0.883 -0.524206,-2.12753 -0.18226,-6.23732 1.173095,-7.64379 7.064766,-7.33121 8.149321,0.43236 7.785402,0.78961 7.785402,-7.64272 l 0,-7.60149 -6.75,0.63022 c -8.388088,0.78316 -9.936393,-0.0401 -8.634036,-4.59096 l 0.954776,-3.33628 10.148953,-0.28426 10.148953,-0.28426 0.315677,-10.06418 c 0.173622,-5.5353 0.09068,-10.18332 -0.184323,-10.32892 -0.275,-0.14561 -4.325,0.32416 -9,1.04393 -4.675,0.71977 -15.112466,1.3332 -23.19437,1.36318 l -14.69437,0.0545 0.03464,32.25 c 0.01905,17.73747 -0.297476,33.55807 -0.70339,35.15677 l -0.738025,2.9068 5.39776,-0.6958 c 2.968768,-0.3828 9.503406,-0.9661 14.521419,-1.2962 l 9.123658,-0.6003 -0.355577,-6.6107 -0.355577,-6.6106 1.63187,6.8001 c 0.961713,4.0075 1.262289,7.1513 0.731918,7.6553 -0.494973,0.4705 -8.020223,1.179 -16.722777,1.5746 l -15.822825,0.7191 0.822825,-7.3745 z"
       id="path4239"
       inkscape:connector-curvature="0" />
  </g>
</svg>
