<?xml version="1.0" encoding="UTF-8" standalone="no"?>
<svg id="svg2" xmlns:rdf="http://www.w3.org/1999/02/22-rdf-syntax-ns#" xmlns="http://www.w3.org/2000/svg" height="100" width="115" version="1.1" xmlns:cc="http://creativecommons.org/ns#" xmlns:xlink="http://www.w3.org/1999/xlink" viewBox="0 0 115 99.999997" xmlns:dc="http://purl.org/dc/elements/1.1/">

 <g transform="translate(0 -952.36)">

  <path id="path4204" d="m70.875 1049.9c-0.825-0.2087-4.0926-4.2925-7.2614-9.0751s-7.1296-10.271-8.8017-12.196l-3.0403-3.5 0.66178 7c1.2763 13.5 2.6706 11.894-11.058 12.736-6.6 0.4049-14.925 0.8549-18.5 1l-6.5 0.2638 0.08146-6c0.04481-3.3 0.18857-22.732 0.31947-43.182l0.23801-37.182 5.0758-1.0886c19.054-4.0864 40.852-3.4019 53.572 1.6822 8.6159 3.4436 15.05 9.4446 16.331 15.231 1.8741 8.4697-0.90363 16.593-8.033 23.492-2.2466 2.1742-4.0847 4.4628-4.0847 5.086 0 1.2865 11.586 12.624 17.25 16.881 5.3868 4.0478 4.8939 5.851-3 10.976-3.7125 2.4102-9.45 7.1649-12.75 10.566-6.5107 6.7102-8.2055 7.89-10.5 7.3095zm9.1615-8.7408c4.3674-4.1085 10.38-8.946 13.361-10.75 2.9813-1.804 5.4269-3.73 5.4348-4.28s-4.0107-4.5767-8.9302-8.9483-9.9002-9.241-11.068-10.821l-2.1237-2.8725 5.1237-4.9125c10.736-10.293 11.964-21.869 3.2463-30.587-5.6054-5.6054-12.953-7.9617-30.754-9.863-6.7821-0.72435-28.164 0.96683-33.292 2.6332-3.1834 1.0344-3.3084 1.2576-2.648 4.7281 0.73488 3.8618 0.70283 70.372-0.03656 75.892-0.32135 2.3992-0.04774 3.25 1.0452 3.25 0.81426 0 1.4805-0.45 1.4805-1 0-0.6239 5.8626-1 15.588-1h15.588l-0.55866-3.75c-3.0879-20.727-0.89867-21.039 11.976-1.7057 4.1959 6.3006 7.8536 11.456 8.1281 11.456 0.27454 0 4.0725-3.3615 8.4398-7.47zm-31.747-45.92c-0.2875-0.74921-0.16088-4.6867 0.28138-8.75 0.75442-6.9313 0.96196-7.4062 3.3588-7.6854 4.0166-0.46787 7.9453 3.2259 7.9453 7.4702 0 6.0581-9.793 13.636-11.585 8.9652zm7.4819-4.1726c1.707-1.9441 3.1036-3.9084 3.1036-4.3651 0-1.8195-4.2612-6.1001-6.0726-6.1001-1.7197 0-1.9274 0.75453-1.9274 7 0 3.85 0.40338 7 0.89641 7 0.49302 0 2.293-1.5907 4-3.5348z"/>
 </g>
</svg>
