<?xml version="1.0" encoding="UTF-8" standalone="no"?>
<svg
   xmlns:dc="http://purl.org/dc/elements/1.1/"
   xmlns:cc="http://creativecommons.org/ns#"
   xmlns:rdf="http://www.w3.org/1999/02/22-rdf-syntax-ns#"
   xmlns:svg="http://www.w3.org/2000/svg"
   xmlns="http://www.w3.org/2000/svg"
   xmlns:xlink="http://www.w3.org/1999/xlink"
   xmlns:inkscape="http://www.inkscape.org/namespaces/inkscape"
   width="115"
   height="100"
   viewBox="0 0 115 100"
 
   version="1.1">
  <g transform="translate(0,-952.36223)">
  
    <path
       style="fill:#000000"
       d="m 36.668105,1048.4753 c -1.000309,-0.6182 -0.794324,-2.7482 0.976691,-10.0994 2.499097,-10.3734 4.145727,-19.9069 4.1545,-24.0534 0.005,-2.3865 -0.884053,-3.1855 -6.93538,-6.2329 -12.654239,-6.3726 -17.959842,-16.40996 -18.80665,-35.57922 -0.450401,-10.19576 -0.29981,-11.75995 1.28473,-13.34449 1.513093,-1.51309 2.671751,-1.67301 7.379013,-1.01843 3.071244,0.42708 10.759079,0.8071 17.084079,0.8445 9.627523,0.0569 11.464368,0.31222 11.281162,1.56798 -0.120361,0.825 -0.722442,3.96813 -1.337959,6.98474 -1.294403,6.34378 -0.08558,12.07333 3.326175,15.76526 6.001813,6.49469 10.714354,-1.35324 10.725045,-17.86071 l 0.0056,-8.61071 5.25,-0.6306 c 2.8875,-0.34683 11.448638,-0.63451 19.024751,-0.63929 l 13.774748,-0.009 1.05586,2.75 c 1.41929,3.69654 0.27625,13.69722 -2.77167,24.25 -3.800102,13.15707 -8.001998,19.03607 -18.835481,26.35337 l -4.77276,3.2237 0.196206,9.7276 c 0.107914,5.3502 0.844688,12.2173 1.637276,15.2603 2.070569,7.9494 1.895335,10.3027 -0.80893,10.8635 -4.130103,0.8565 -41.600696,1.2818 -42.886983,0.4869 z m 43.117308,-3.6654 c -0.01082,-0.9625 -0.670121,-5.35 -1.465112,-9.75 -0.79499,-4.4 -1.461137,-11.6697 -1.480325,-16.1549 l -0.03489,-8.155 4.507735,-2.6417 c 12.634569,-7.4044 20.438389,-22.47257 22.127399,-42.72527 l 0.65242,-7.82309 -18.54895,0 -18.548948,0 0.534108,5.89024 c 1.638776,18.07271 -5.604874,29.3825 -13.659801,21.32757 -3.655427,-3.65543 -4.646007,-8.67809 -3.436861,-17.42636 l 0.934122,-6.75845 -10.544686,0.0849 c -5.799577,0.0467 -13.096424,-0.23388 -16.215216,-0.62355 l -5.67053,-0.70849 -0.697711,3.71913 c -0.383742,2.04552 -0.46811,7.74599 -0.187486,12.66772 0.871078,15.27741 8.307443,27.25885 19.911434,32.08125 2.631864,1.0938 5.049096,2.8201 5.371625,3.8363 0.762092,2.4012 -1.014026,15.0451 -3.537863,25.1857 -1.094935,4.3993 -1.990791,8.387 -1.990791,8.8614 0,0.4745 9.45,0.8626 21,0.8626 19.340828,0 20.998446,-0.1382 20.980325,-1.75 z"
       inkscape:connector-curvature="0" />
   
  </g>
</svg>
