<?xml version="1.0" encoding="UTF-8" standalone="no"?>

<svg
   xmlns:dc="http://purl.org/dc/elements/1.1/"
   xmlns:cc="http://creativecommons.org/ns#"
   xmlns:rdf="http://www.w3.org/1999/02/22-rdf-syntax-ns#"
   xmlns:svg="http://www.w3.org/2000/svg"
   xmlns="http://www.w3.org/2000/svg"
   xmlns:xlink="http://www.w3.org/1999/xlink"
   xmlns:inkscape="http://www.inkscape.org/namespaces/inkscape"
   width="100"
   height="120"
   viewBox="0 0 100 120"
   id="svg2"
   version="1.1">
  
  <g transform="translate(0,-932.36213)">
    <path
       style="fill:#000000"
       d="m 37.33293,1046.6296 c -12.112319,-2.9308 -23.697332,-12.0382 -28.4295549,-22.3493 -1.9393613,-4.2257 -2.602106,-7.6088 -2.9643793,-15.1321 -0.8161808,-16.94964 2.289399,-24.49469 15.0285692,-36.51218 11.118891,-10.489 21.324115,-14.40906 45.561728,-17.50132 11.955792,-1.52534 13.681019,-0.85277 14.666296,5.71753 0.394782,2.63259 1.570371,7.50543 2.612421,10.82854 1.042049,3.3231 1.900441,7.27094 1.907537,8.77296 0.01504,3.18298 -0.620325,3.39222 -12.655012,4.16756 -18.740947,1.2074 -29.299721,9.45277 -29.32651,22.90111 -0.01167,5.8587 6.540361,12.8561 10.58468,11.3041 2.456809,-0.9427 1.568624,-3.4526 -1.340257,-3.7873 l -2.75,-0.3164 -0.155159,-9.75 -0.155159,-9.75002 13.221499,0 c 7.271825,0 15.778548,-0.4727 18.903828,-1.05044 9.389531,-1.73574 9.092698,-2.46574 8.821208,21.69386 -0.268613,23.9036 0.678344,21.6188 -11.065592,26.6988 -12.019871,5.1993 -30.476133,6.9659 -42.466143,4.0646 z m 30.985555,-2.4297 c 4.35048,-1.1126 10.722463,-3.339 14.159963,-4.9475 l 6.25,-2.9245 0,-20.0482 0,-20.04825 -18.25,0.24566 -18.25,0.24567 -0.289308,8.17982 -0.289308,8.1797 2.789308,0.3203 c 2.182287,0.2505 2.856757,0.904 3.09924,3.0029 0.650339,5.6293 -6.853173,5.8099 -11.706885,0.2819 -3.804953,-4.3336 -4.708725,-9.8693 -2.725224,-16.69234 3.283891,-11.29619 16.108507,-17.73701 35.372177,-17.76473 6.296623,-0.009 6.193535,0.59763 2.465127,-14.50755 l -2.715127,-11 -5.487421,-0.31049 C 61.054355,955.75102 38.500633,961.856 28.86881,968.28789 12.511136,979.21112 5.0563128,994.4384 7.7059011,1011.5154 c 0.605574,3.903 2.0043543,9.1464 3.1084009,11.6519 3.767793,8.5506 15.597164,18.2861 26.280119,21.6283 6.538024,2.0455 22.053906,1.7495 31.224064,-0.5957 z"
       id="path4252"
       inkscape:connector-curvature="0" />
  </g>
</svg>
