<?xml version="1.0" encoding="UTF-8" standalone="no"?>


<svg
   xmlns:dc="http://purl.org/dc/elements/1.1/"
   xmlns:cc="http://creativecommons.org/ns#"
   xmlns:rdf="http://www.w3.org/1999/02/22-rdf-syntax-ns#"
   xmlns:svg="http://www.w3.org/2000/svg"
   xmlns="http://www.w3.org/2000/svg"
   xmlns:xlink="http://www.w3.org/1999/xlink"
   xmlns:inkscape="http://www.inkscape.org/namespaces/inkscape"
   width="115"
   height="120"
   viewBox="0 0 115 120"
   id="svg2"
   version="1.1">
 
  <g transform="translate(0,-932.36213)">
    
    <path
       style="fill:#000000"
       d="m 19.692939,1031.0114 c -0.290825,-0.7578 -0.09873,-17.7453 0.426868,-37.74996 0.525602,-20.00462 0.723709,-40.01794 0.440238,-44.47405 -0.628645,-9.88218 -2.04886,-9.19428 20.724436,-10.03819 27.386426,-1.01486 41.805372,1.80349 50.021914,9.77738 6.077596,5.8981 8.437253,11.73493 8.434221,20.86282 -0.0029,8.75453 -2.13094,13.7457 -8.49304,19.9199 -4.916994,4.77179 -16.136432,10.30528 -25.81506,12.7321 l -7.351966,1.8435 0.571935,4.1727 c 0.314563,2.295 0.87312,7.7842 1.241237,12.1983 0.784452,9.4062 3.003949,8.1131 -18.109241,10.5509 -17.133713,1.9784 -21.39575,2.0178 -22.091542,0.2046 z m 23.919983,-2.5742 c 7.605642,-1.0292 14.092741,-2.1356 14.415776,-2.4587 0.323034,-0.323 0.06396,-5.3806 -0.575722,-11.239 -0.747153,-6.8427 -0.8192,-11.066 -0.201478,-11.8104 0.528869,-0.6372 3.964314,-1.7554 7.634323,-2.4849 14.017091,-2.78617 28.225804,-12.79839 31.930999,-22.50031 1.26608,-3.31518 1.602603,-6.28462 1.233434,-10.88369 -1.168641,-14.55881 -9.517648,-22.69344 -26.353745,-25.67708 -7.208797,-1.27753 -45.245089,-0.97689 -48.412028,0.38264 -1.293087,0.55511 -1.455514,4.47042 -1.177499,28.38379 0.177376,15.25692 -0.177216,34.07805 -0.787983,41.82485 -1.379517,17.4973 -0.830937,19.7038 4.696385,18.8895 2.073003,-0.3054 9.991895,-1.3974 17.597538,-2.4267 z m 10.09783,-49.1671 c -1.275341,-2.06354 -0.648987,-16.1193 0.760847,-17.07386 1.950271,-1.32048 8.688449,-0.22943 10.890498,1.7634 1.191444,1.07824 1.922384,3.05633 1.922384,5.2024 0,6.35753 -10.88295,14.46184 -13.573729,10.10806 z m 8.213414,-4.18931 c 5.850192,-5.3613 4.336548,-11.69139 -2.795631,-11.69139 -3.821107,0 -5.016663,2.68002 -4.219871,9.45948 0.7721,6.56936 1.893299,6.92606 7.015502,2.23191 z"
       id="path4391"
       inkscape:connector-curvature="0" />
  </g>
</svg>
