<?xml version="1.0" encoding="UTF-8" standalone="no"?>

<svg  xmlns:rdf="http://www.w3.org/1999/02/22-rdf-syntax-ns#" xmlns="http://www.w3.org/2000/svg" height="120" width="100" version="1.1" xmlns:cc="http://creativecommons.org/ns#" xmlns:xlink="http://www.w3.org/1999/xlink" viewBox="0 0 100 120" xmlns:dc="http://purl.org/dc/elements/1.1/">

 <g  transform="translate(0 -932.36)">

  <path id="path4184" d="m10.992 1035c-0.32314-0.5229 0.1273-15.242 1.001-32.709 1.2772-25.534 1.3643-34.277 0.44456-44.609-0.62918-7.0681-0.89531-13.499-0.5914-14.291 0.81968-2.1361 35.29-2.0287 46.755 0.14564 17.121 3.2472 29.194 11.25 35.111 23.274 3.1199 6.3407 3.2499 7.0858 3.2499 18.623 0 11.453-0.15079 12.336-3.2093 18.793-6.5882 13.909-18.13 21.41-41.115 26.722-17.84 4.1224-40.254 6.3036-41.645 4.0526zm21.47-2.4971c6.875-0.7852 14.75-2.1258 17.5-2.9791s6.1282-1.5564 7.507-1.5623c1.3789-0.01 7.1961-2.3112 12.927-5.1228 18.546-9.0986 25.203-18.502 25.405-35.888 0.159-13.77-4.537-24.69-13.538-31.46-11.679-8.78-28.419-12.72-52.245-12.29l-15.943 0.28381-0.16888 32.5c-0.09288 17.875-0.5169 38.237-0.94224 45.25l-0.77336 12.75 3.8854-0.01c2.137-0.01 9.5104-0.6524 16.385-1.4377zm14.977-33.08c-0.95055-1.1453-1.0949-4.2117-0.57668-12.25 0.90545-14.045 1.2348-15.222 4.2578-15.222 3.3274 0 7.7359 2.4141 10.254 5.6149 4.367 5.5517 1.3342 15.047-6.4537 20.205-5.515 3.653-5.7733 3.71-7.4811 1.6522zm6.7403-3.3824c5.0709-3.6734 8.7377-10.763 7.3942-14.297-1.2659-3.3296-6.732-7.7932-9.5436-7.7932-2.0835 0-2.3333 0.57801-2.9162 6.75-0.89864 9.515-0.80375 18.25 0.19825 18.25 0.46748 0 2.6578-1.3096 4.8673-2.9101z"/>
 </g>
</svg>
