<?xml version="1.0" encoding="UTF-8" standalone="no"?>
<svg  xmlns:rdf="http://www.w3.org/1999/02/22-rdf-syntax-ns#" xmlns="http://www.w3.org/2000/svg" height="120" width="100" version="1.1" xmlns:cc="http://creativecommons.org/ns#" xmlns:xlink="http://www.w3.org/1999/xlink" viewBox="0 0 100 120" xmlns:dc="http://purl.org/dc/elements/1.1/">

 <g  transform="translate(0 -932.36)">
  <path  d="m19.602 1046.9c-0.29071-0.4796-0.85344-5.6877-1.2505-11.574l-0.72195-10.702 2.3662-0.4855c1.3014-0.267 3.554-0.7348 5.0059-1.0395 1.4518-0.3048 2.9888-1.3455 3.4155-2.3128 0.42669-0.9672 0.97484-10.196 1.2181-20.509l0.44234-18.75h-3.026c-6.1606 0-6.1896-0.0638-6.1896-13.607v-12.393l17.25 0.13361c12.266 0.095 15.805 0.35862 12.25 0.9124-2.75 0.42833-10.062 0.8182-16.25 0.86638l-11.25 0.0876v11 11h3.3776c5.8075 0 6.0101 0.87329 5.2562 22.647-0.37267 10.762-1.1335 20.419-1.6908 21.46-0.76195 1.4237-2.1206 1.8933-5.4781 1.8933-4.372 0-4.4647 0.068-4.4577 3.25 0.0039 1.7875 0.28333 6.175 0.62094 9.75l0.61383 6.5 21.129-0.3182c11.621-0.1751 22.817-0.7549 24.879-1.2886l3.75-0.9703v-7.8797c0-4.3338 0.27314-8.5914 0.60699-9.4614 0.48368-1.2605-0.11864-1.5818-2.9648-1.5818-2.5079 0-3.8802-0.5762-4.607-1.9343-1.1229-2.0982-1.4595-35.694-0.41018-40.941 0.42117-2.1058 1.2098-3.125 2.4182-3.125 4.664 0 4.9568-0.68556 4.9568-11.607v-10.393l-7.25-0.12836-7.25-0.12835 5.8278-0.99671c4.1-0.70121 6.5459-0.66951 8.25 0.10691 2.3571 1.074 2.4222 1.4104 2.4222 12.526v11.422l-3.75 0.88595-3.75 0.88595-0.2942 17.463c-0.36997 21.961-0.05939 23.963 3.7171 23.963 4.4621 0 4.9358 1.4576 4.2243 13l-0.64719 10.5-20.5 0.6037c-11.275 0.332-23.027 0.9494-26.116 1.3719-3.0886 0.4225-5.8535 0.3758-6.1442-0.1037z"/>
 </g>
</svg>
