<?xml version="1.0" encoding="UTF-8" standalone="no"?>
<!-- Created with Inkscape (http://www.inkscape.org/) -->
<svg id="svg2" xmlns:rdf="http://www.w3.org/1999/02/22-rdf-syntax-ns#" xmlns="http://www.w3.org/2000/svg" height="120" width="100" version="1.1" xmlns:cc="http://creativecommons.org/ns#" xmlns:xlink="http://www.w3.org/1999/xlink" viewBox="0 0 100 120" xmlns:dc="http://purl.org/dc/elements/1.1/">

 <g transform="translate(0 -932.36)">
  <path id="path4302" d="m35.955 1044.7c-5.1068-1.5406-12.658-7.67-16.146-13.105-4.1782-6.5112-5.8343-12.587-6.5476-24.022l-0.60821-9.75h13.951c14.725 0 16.351 0.45918 16.351 4.6182 0 5.206 2.9335 7.243 4.9648 3.4475 1.7233-3.2201 1.1456-25.513-0.94764-36.566-2.2828-12.054-2.367-11.933 8.9576-12.878 4.393-0.36636 10.808-1.5505 14.256-2.6314 7.8311-2.455 9.4421-2.4704 10.709-0.10249 2.1492 4.0158 3.1588 24.318 2.1218 42.668-1.3267 23.477-3.1225 29.318-11.899 38.701-6.9157 7.3935-12.804 10.034-23.163 10.387-4.675 0.1592-10.075-0.1857-12-0.7664zm23.5-3.2357c8.339-3.9005 16.309-14.224 19.41-25.142 2.225-7.833 3.269-31.125 2.0843-46.5-0.6145-7.975-1.5336-14.922-2.0425-15.437-0.57429-0.58147-3.0199-0.27649-6.4478 0.80406-3.0374 0.95747-9.6809 2.2314-14.763 2.8308-5.0823 0.5995-9.5436 1.3627-9.9139 1.6959-0.37032 0.33327 0.17215 5.1059 1.2055 10.606 2.2294 11.866 2.6158 32.661 0.67795 36.491-2.5872 5.1137-7.3127 3.3468-8.3469-3.121l-0.61886-3.8701h-13.372-13.372l0.01314 3.25c0.0072 1.7875 0.86207 7.3635 1.8997 12.391 2.8925 14.016 9.5468 23.074 19.678 26.786 6.423 2.3534 18.013 1.9728 23.909-0.785z"/>
 </g>
</svg>
