<?xml version="1.0" encoding="UTF-8" standalone="no"?>

<svg id="svg2" xmlns:rdf="http://www.w3.org/1999/02/22-rdf-syntax-ns#" xmlns="http://www.w3.org/2000/svg" height="100" width="115" version="1.1" xmlns:cc="http://creativecommons.org/ns#" xmlns:xlink="http://www.w3.org/1999/xlink" viewBox="0 0 115 99.999997" xmlns:dc="http://purl.org/dc/elements/1.1/">

 <g id="layer1" transform="translate(0 -952.36)">

  <path id="path4267" d="m17.885 1048.2c-0.26482-0.7579-1.189-7.0031-2.0538-13.878-1.5107-12.011-5.3332-32.08-10.947-57.474-1.4558-6.5857-2.5134-13.336-2.3503-15l0.29666-3.026 12-0.15217c8.6999-0.11032 10.9 0.0801 8 0.69237-2.2 0.4645-7.3206 0.87047-11.379 0.90217l-7.3792 0.0576 0.65738 5.75c0.36156 3.1625 1.556 9.125 2.6542 13.25 2.6483 9.9469 10.065 50.124 11.512 62.361l0.69294 5.8608 6.1209-0.6168c3.3665-0.3393 9.5962-0.8963 13.844-1.2378 5.9086-0.475 7.8332-1.0022 8.1923-2.244 0.25816-0.8927 1.6886-6.7259 3.1787-12.963 2.625-10.987 4.5046-14.237 6.4309-11.12 1.276 2.0647 4.9753 17.54 4.9753 20.813 0 1.6089 0.7875 3.889 1.75 5.0669l1.75 2.1414 10-1.993c5.5-1.0962 11.323-2.1225 12.941-2.2807l2.9408-0.2877 4.2055-19.5c4.4413-20.593 10.037-43.162 13.388-54 1.1054-3.575 2.0133-7.0104 2.0175-7.6342 0.005-0.75909-4.3742-1.3315-13.242-1.7307-7.2875-0.32811-14.519-0.71773-16.069-0.86583l-2.8194-0.26928-0.46404 9c-0.68186 13.225-2.1001 19.5-4.4069 19.5-1.4742 0-1.9992-1.0011-2.491-4.75-0.34275-2.6125-1.0453-6.9096-1.5613-9.5492-0.51595-2.6396-0.93808-7.2521-0.93808-10.25 0-5.1729-0.12971-5.4508-2.5445-5.4508-3.2519 0-15.598 3.0147-17.091 4.1732-0.6244 0.48467-1.8887 3.9065-2.8095 7.604-3.7092 14.894-4.6052 17.223-6.6262 17.223-1.693 0-1.9562-0.82612-2.151-6.75-0.12205-3.7125-0.07988-10.462 0.09372-15 0.28251-7.3844 0.12742-8.25-1.4781-8.25-1.336 0-1.5046-0.28907-0.66094-1.1328 0.62303-0.62303 1.8656-0.85157 2.7613-0.50785 1.3839 0.53105 1.5257 1.6683 0.9441 7.571-0.77019 7.8162 0.31716 21.298 1.5337 19.016 0.4239-0.79529 1.798-5.496 3.0536-10.446s2.776-9.5244 3.3787-10.165c1.3577-1.4438 21.287-5.977 22.212-5.0524 0.36955 0.36955 0.79094 3.4947 0.93643 6.9448 0.35301 8.3712 2.8529 22.545 3.7269 21.13 1.0451-1.6911 2.6787-14.089 2.7012-20.501 0.01394-3.9716 0.44576-5.8065 1.4579-6.1949 0.79097-0.30352 5.4035-0.13466 10.25 0.37524 4.8465 0.50991 12.299 0.9351 16.562 0.94487 6.5662 0.0151 7.75 0.27289 7.75 1.688 0 0.91864-1.7957 8.0809-3.9905 15.916-5.8907 21.03-16.009 64.637-16.009 68.994 0 0.2306-1.295 0.4192-2.8779 0.4192-1.5828 0-4.5129 0.6832-6.5113 1.5182-4.901 2.0478-20.353 2.491-21.52 0.6174-0.46762-0.7505-1.1346-3.4395-1.4822-5.9756-1.0655-7.7734-4.8278-20.527-5.6144-19.031-0.61196 1.1635-4.1886 15.672-5.5394 22.471-0.38254 1.9253-1.3093 2.1536-11.186 2.7556-5.9228 0.361-12.898 0.9365-15.501 1.2788-3.5488 0.4669-4.8527 0.2779-5.2137-0.7555z"/>
 </g>
</svg>
