<?xml version="1.0" encoding="UTF-8" standalone="no"?>

<svg id="svg2" xmlns:rdf="http://www.w3.org/1999/02/22-rdf-syntax-ns#" xmlns="http://www.w3.org/2000/svg" height="100" width="115" version="1.1" xmlns:cc="http://creativecommons.org/ns#" xmlns:xlink="http://www.w3.org/1999/xlink" viewBox="0 0 115 99.999997" xmlns:dc="http://purl.org/dc/elements/1.1/">

 <g  transform="translate(0 -952.36)">

  <path id="path4269" d="m32.042 1046.4c-0.3769-1.5851-5.437-21.449-11.245-44.142-5.8077-22.693-10.302-41.931-9.9876-42.75 0.43614-1.1366 2.3498-1.4899 8.0687-1.4899 4.1234 0 12.501-0.69796 18.617-1.551 7.7913-1.0867 11.497-1.2381 12.38-0.50577 0.83274 0.69111 1.4693 5.5366 1.8789 14.301 0.63783 13.65 3.3959 31.547 4.6358 30.083 0.38495-0.45479 2.6059-8.9269 4.9354-18.827 2.3295-9.9 4.561-19.35 4.9587-21 0.9484-3.9342 2.1039-3.9995 21.16-1.1962 17.645 2.5958 16.348 1.3233 13.454 13.196-0.93858 3.85-2.9467 9.475-4.4626 12.5-4.2722 8.5257-11.1 30.184-15.92 50.5l-2.6099 11-14.48 0.6156c-7.9643 0.3386-18.129 0.9605-22.589 1.382l-8.1085 0.7664-0.68527-2.882zm12.74 0.1179c4.3109-0.8249 13.132-1.4999 19.603-1.4999h11.765l3.2695-12.75c5.9296-23.123 8.8321-32.629 13.054-42.75 4.3302-10.381 9.0741-26.062 8.1607-26.976-0.28835-0.28836-4.0925-0.52428-8.4537-0.52428s-10.356-0.7054-13.322-1.5676c-2.9657-0.86216-6.6064-1.4247-8.0905-1.25-2.4506 0.2884-2.8258 0.9143-4.0863 6.8176-1.6158 7.5669-6.7485 28.8-8.2795 34.25-1.1005 3.9178-3.4584 5.0057-4.3349 2-1.4624-5.014-2.8555-15.36-3.9388-29.25l-1.2088-15.5-3.9884 0.20128c-2.1936 0.11071-10.401 0.51026-18.238 0.88789-13.033 0.62796-14.25 0.84704-14.25 2.5653 0 1.7239 1.7721 8.7984 13.112 52.345 2.1484 8.25 4.8223 18.825 5.9421 23.5 2.6134 10.911 2.6471 11 4.1643 11 0.70476-0.0001 4.8085-0.6751 9.1194-1.5z"/>
 </g>
</svg>
