<?xml version="1.0" encoding="UTF-8" standalone="no"?>

<svg id="svg2" xmlns:rdf="http://www.w3.org/1999/02/22-rdf-syntax-ns#" xmlns="http://www.w3.org/2000/svg" height="120" width="115" version="1.1" xmlns:cc="http://creativecommons.org/ns#" xmlns:xlink="http://www.w3.org/1999/xlink" viewBox="0 0 115 120" xmlns:dc="http://purl.org/dc/elements/1.1/">

 <g  transform="translate(0 -932.36)">
  <path id="path4378" d="m50.057 1034.9c-12.882-1.9287-25.981-11.934-32.233-24.621-2.9137-5.9126-3.3032-7.7171-3.6017-16.686-0.87364-26.253 12.476-45.665 35.066-50.991 12.136-2.8614 22.723-1.5983 35.038 4.1802 10.624 4.9848 15.852 10.65 18.879 20.453 6.1761 20.003 0.00029 43.1-15.335 57.351-9.3367 8.6769-23.303 12.486-37.814 10.314zm14.783-1.8405c17.199-2.791 30.934-15.345 36.37-33.243 2.9471-9.7027 2.4002-28.89-1.025-35.961-6.7892-14.016-27.759-22.802-47.305-19.821-20.83 3.1766-33.905 17.847-36.768 41.253-1.7634 14.415 1.7337 25.472 11.233 35.516 7.3543 7.7761 15.978 11.532 30.213 13.161 0.55 0.063 3.8273-0.3444 7.2828-0.9052zm-9.9745-31.558c-3.0497-1.5979-4.8539-5.4941-5.514-11.908-1.069-10.387 4.1537-19.5 11.175-19.5 10.205 0 13.127 18.556 4.4746 28.411-3.3801 3.8496-6.6578 4.8187-10.136 2.9965zm8.441-4.1576c3.3408-3.5019 4.7507-7.2609 4.7507-12.666 0-6.29-1.7709-10.414-5.2426-12.21-2.8121-1.4542-3.2105-1.4294-5.6416 0.35147-7.0121 5.1365-8.3093 18.983-2.3912 25.522 2.2921 2.5327 5.5164 2.1552 8.5247-0.99817z"/>
 </g>
</svg>
