<?xml version="1.0" encoding="UTF-8" standalone="no"?>

<svg id="svg2" xmlns:rdf="http://www.w3.org/1999/02/22-rdf-syntax-ns#" xmlns="http://www.w3.org/2000/svg" height="100" width="115" version="1.1" xmlns:cc="http://creativecommons.org/ns#" xmlns:xlink="http://www.w3.org/1999/xlink" viewBox="0 0 115 99.999997" xmlns:dc="http://purl.org/dc/elements/1.1/">

 <g  transform="translate(0 -952.36)">
  <path id="path4217" d="m21.308 1046.4c-1.7875-0.7769-3.25-1.7999-3.25-2.2732 0-0.4734 1.2807-4.6576 2.846-9.2983s3.4307-10.913 4.1452-13.938c0.71454-3.025 1.7963-5.8306 2.404-6.2347 1.6466-1.095 4.6048-0.916 4.6048 0.2785 0 0.5741-0.73834 0.9116-1.6408 0.75-1.2913-0.2312-2.4712 2.3686-5.5399 12.206-2.1445 6.875-4.1473 13.244-4.4507 14.154-0.64238 1.926 0.14639 2.216 10.631 3.9085 9.059 1.4624 27.863 0.6503 36.5-1.5762 20.879-5.3824 30.305-19.262 23.421-34.486-2.7309-6.04-7.0744-10.377-15.122-15.099-7.4837-4.3911-8.1803-5.1269-7.345-7.7585 0.92387-2.9109 5.3262-4.2833 12.977-4.0456l7.0686 0.21965-0.36713-12.908c-0.20192-7.0996-0.56598-13.246-0.80902-13.658-0.76152-1.2925-18.503-0.78333-25.678 0.73695-16.312 3.456-27.078 11.312-30.195 22.033-3.2373 11.136-0.1681 18.262 10.728 24.907 11.465 6.992 13.899 10.382 9.9917 13.918-1.9506 1.7653-6.3882 2.0658-9.6713 0.655-1.5293-0.6572-0.94094-0.8796 2.5-0.945 5.3859-0.1025 7.321-1.1423 6.8387-3.6748-0.33716-1.7704-2.892-3.6892-14.486-10.88-6.4091-3.975-7.8534-7.1035-7.8482-17 0.0036-6.9793 0.37988-8.6792 2.949-13.324 4.6801-8.4605 11.358-12.922 24.355-16.269 10.046-2.5875 29.012-3.65 31.393-1.7587 1.4367 1.1415 1.7325 3.5266 1.9039 15.351l0.20299 14-8.6283 0.0101c-6.7574 0.008-8.9947 0.37646-10.318 1.6998-2.1862 2.1862-0.77405 4.0309 5.5756 7.2833 5.8134 2.9777 12.429 9.3824 15.278 14.791 2.9904 5.6774 3.0126 15.534 0.04781 21.216-4.3884 8.4088-13.512 14.175-26.928 17.017-9.3332 1.9775-39.529 1.9721-44.085-0.01z"/>
 </g>
</svg>
