<?xml version="1.0" encoding="UTF-8" standalone="no"?>
<svg xmlns:rdf="http://www.w3.org/1999/02/22-rdf-syntax-ns#" xmlns="http://www.w3.org/2000/svg" height="120" width="115" version="1.1" xmlns:cc="http://creativecommons.org/ns#" xmlns:xlink="http://www.w3.org/1999/xlink" viewBox="0 0 115 120" xmlns:dc="http://purl.org/dc/elements/1.1/">

 <g transform="translate(0 -932.36)">

  <path  d="m69.945 1040.1c-0.73968-0.6121-2.6064-3.3628-4.1482-6.1128s-6.2257-9.725-10.409-15.5l-7.6053-10.5-0.5 14-0.5 14-16.347 0.2752-16.347 0.2752 0.62776-4.7752c1.9052-14.492 5.7164-55.664 6.2542-67.562 0.34273-7.5828 0.91834-13.969 1.2792-14.192 1.4957-0.92438 24.916-3.5029 26.455-2.9126 0.91938 0.35281 2.8354 2.9382 4.2579 5.7452 3.2572 6.4279 15.288 25.647 16.055 25.647 0.3152 0 0.30411-6.289-0.02463-13.976-0.43107-10.079-0.27489-14.175 0.56021-14.691 0.63685-0.3936 4.8354-0.60049 9.3301-0.45977s10.983-0.25382 14.418-0.87676c3.4353-0.62294 6.5754-0.76454 6.978-0.31467 0.40259 0.44987 0.41751 8.018 0.0332 16.818l-0.69882 16-0.16521-15.634-0.16521-15.634-13.25 0.46447c-7.2875 0.25545-13.635 0.55623-14.105 0.66839-0.46998 0.11217-0.8028 6.4883-0.7396 14.169 0.11247 13.668-0.5451 17.424-2.8057 16.027-1.4627-0.90399-6.2989-8.5309-13.572-21.404-3.2137-5.688-6.3348-10.512-6.9356-10.721-0.60088-0.20829-6.2675 0.17628-12.593 0.8546l-11.5 1.2333-0.6866 10.987c-1.2538 20.063-2.8854 38.795-4.869 55.895-1.0787 9.2995-1.845 17.011-1.7028 17.137 0.14215 0.126 6.7083-0.01 14.591-0.3011l14.333-0.5301-0.18142-13.107c-0.22425-16.201-0.27872-15.607 1.4307-15.607 1.5905 0 15.87 18.992 20.657 27.475 2.8232 5.0023 3.4395 5.5254 6.5117 5.5254 1.8664 0 6.6609-0.862 10.655-1.9155 3.9936-1.0536 8.9487-2.199 11.011-2.5454l3.75-0.6298v-7.6213c0-4.1918 0.16545-7.4339 0.36768-7.2047 0.77678 0.8803 1.3479 13.759 0.65956 14.873-0.72363 1.1709-14.786 5.1825-24.101 6.8756-3.3748 0.6134-5.3415 0.5448-6.2641-0.2187z"/>
 </g>
</svg>
