<?xml version="1.0" encoding="UTF-8" standalone="no"?>
<svg
   xmlns:dc="http://purl.org/dc/elements/1.1/"
   xmlns:cc="http://creativecommons.org/ns#"
   xmlns:rdf="http://www.w3.org/1999/02/22-rdf-syntax-ns#"
   xmlns:svg="http://www.w3.org/2000/svg"
   xmlns="http://www.w3.org/2000/svg"
   xmlns:sodipodi="http://sodipodi.sourceforge.net/DTD/sodipodi-0.dtd"
   xmlns:inkscape="http://www.inkscape.org/namespaces/inkscape"
   height="120"
   width="100"
   version="1.1"
   viewBox="0 0 100 120"
>
  
  <g
     transform="translate(0 -932.36)"
     id="g4">
    <path
       d="m10.155 1040.2c-1.5954-0.6712-0.86454-92.568 0.74449-93.607 0.69053-0.44598 11.831-0.66632 24.756-0.48965 21.273 0.2908 24.163 0.53823 30.5 2.6111 14.638 4.7884 18.43 8.7654 18.478 19.38 0.0258 5.6618-0.96634 7.8784-5.7813 12.916-1.9617 2.0524-3.371 3.8524-3.1318 4 0.23926 0.1476 3.0259 1.5628 6.1925 3.1449 10.889 5.4401 14.449 12.37 11.371 22.134-3.1382 9.9557-13.154 19.572-25.42 24.407-9.6294 3.7956-25.54 6.0851-41.708 6.0017-8.25-0.043-15.45-0.2668-16-0.4982zm46-3.8229c21.731-4.9491 36.5-18.281 36.5-32.948 0-3.4119-0.6385-4.6051-4.385-8.1949-2.4117-2.3108-6.9432-5.4118-10.07-6.8909l-5.6849-2.6894 3.9851-4.3233c5.8047-6.2974 7.4652-9.9956 6.7198-14.966-1.3398-8.9347-5.8356-12.714-19.693-16.554-6.3702-1.7653-10.287-2.0318-29.852-2.0318l-22.52 0.00008v45.613 45.613l19-0.5172c11.982-0.3261 21.586-1.1059 26-2.1113zm-13.5-28.492c0-8.5379 0.37161-9.107 5.9469-9.107 3.585 0 8.0594 3.5227 8.0308 6.3226-0.0287 2.8139-2.5848 5.9569-6.9778 8.58-6.2965 3.7598-7 3.1774-7-5.7956zm5.3157 4.7681c3.3775-1.7396 6.6843-5.0643 6.6843-6.7207 0-2.6934-3.1774-5.1544-6.655-5.1544h-3.345v6.5c0 3.575 0.25458 6.5 0.56574 6.5s1.5487-0.5062 2.75-1.1249zm-4.8986-29.23c-0.28605-0.74543-0.38442-4.2329-0.21861-7.75l0.30147-6.3947 3.2776 0.15045c7.0576 0.32395 8.4067 5.8911 2.8543 11.778-3.5726 3.788-5.3661 4.4275-6.2148 2.2159zm7.5829-8.1318c0-2.5875-1.7919-4.5129-4.2-4.5129-1.5394 0-1.8 0.89582-1.8 6.1871v6.1871l3-2.8742c1.65-1.5808 3-3.825 3-4.9871z"
       id="path6" />
  </g>
  <path
     style="opacity:1;fill:#ffffff;fill-opacity:1"
     d="m 11.457627,61.024978 0,-45.254238 20.225204,0 c 21.57303,0 26.01489,0.312457 33.033659,2.323708 13.034273,3.735013 18.069874,8.592627 18.148276,17.506801 0.04169,4.743406 -1.093368,7.010824 -6.594458,13.172932 -2.087654,2.338506 -3.789579,4.392698 -3.782064,4.564872 0.0075,0.172174 1.544954,0.997619 3.416522,1.834323 6.431507,2.875274 13.915739,8.623568 15.6867,12.048234 1.047514,2.025661 0.883048,7.060744 -0.350349,10.72619 -4.531256,13.466059 -21.746288,24.53837 -41.647897,26.78696 -5.125188,0.57907 -25.553009,1.51635 -33.432203,1.53395 l -4.70339,0.0105 0,-45.254232 z m 36.437847,21.503227 c 5.26827,-2.579619 8.81639,-6.509654 8.81639,-9.765366 0,-3.531458 -5.36012,-7.040896 -9.961692,-6.522234 -3.821157,0.430703 -4.021358,0.876778 -4.021358,8.960115 0,5.203617 0.180698,7.239803 0.697853,7.863707 0.919649,1.109486 1.168915,1.079578 4.468807,-0.536222 z m 0.586199,-32.597526 c 6.58414,-6.413153 5.739939,-12.166974 -1.915501,-13.055482 -1.725375,-0.200251 -3.240387,-0.260749 -3.366695,-0.134442 -0.557498,0.557498 -0.804146,12.92203 -0.284096,14.24185 0.854781,2.169329 2.59722,1.840041 5.566292,-1.051926 z"
     id="path4164"
     inkscape:connector-curvature="0" />
</svg>
