<?xml version="1.0" encoding="UTF-8" standalone="no"?>

<svg  xmlns:rdf="http://www.w3.org/1999/02/22-rdf-syntax-ns#" xmlns="http://www.w3.org/2000/svg" height="120" width="100" version="1.1" xmlns:cc="http://creativecommons.org/ns#" xmlns:xlink="http://www.w3.org/1999/xlink" viewBox="0 0 100 120" xmlns:dc="http://purl.org/dc/elements/1.1/">

 <g  transform="translate(0 -932.36)">
  <path  d="m49.155 1040.1c-11.917-1.3068-22.952-8.0399-29.747-18.15-5.6795-8.4504-7.6852-15.454-7.6301-26.646 0.12482-25.385 15.033-41.361 44.758-47.964 3.745-0.83183 27.601-0.83011 30.917 0.002 3.4267 0.86006 3.8316 2.3823 2.1339 8.0233-0.78724 2.6158-1.4314 8.4937-1.4314 13.062 0 6.8931-0.29766 8.4624-1.75 9.2262-0.9625 0.50615-6.4559 0.99566-12.207 1.0878-12.257 0.19634-16.114 1.7775-20.379 8.3546-6.6594 10.27-0.47089 22.479 11.554 22.794l3.2821 0.086-2.7608 0.8305c-8.017 2.4115-16.739-5.7209-16.739-15.607 0-6.5321 5.5535-14.052 12.5-16.927 1.1-0.45519 6.95-1.0842 13-1.3979l11-0.57026 0.62609-9.5842c0.34435-5.2713 1.1319-10.529 1.75-11.684 0.61815-1.155 1.1239-3.089 1.1239-4.2976 0-2.1934-0.03022-2.1966-15.75-1.6557-23.146 0.79634-35.665 4.7646-46.62 14.777-10.264 9.3807-14.188 19.489-13.401 34.526 0.39913 7.6305 1.0246 10.362 3.6642 16.003 4.1598 8.8894 8.608 14.153 15.414 18.24 9.04 5.4283 14.873 6.4762 32.694 5.8733 14.335-0.485 22.237-1.6842 24.355-3.6958 0.47039-0.4468-0.52689-6.3675-2.2162-13.157-1.6893-6.7896-3.2015-13.225-3.3605-14.301-0.16164-1.0938-1.3889-2.2622-2.7838-2.6503-2.2977-0.6394-2.2381-0.7021 0.75525-0.7939 2.5574-0.078 3.25 0.3038 3.25 1.7937 0 1.6174 4.7497 21.524 6.4034 26.836 0.98312 3.1586-1.0427 4.5133-9.5477 6.3843-7.8434 1.7255-22.944 2.2688-32.856 1.182zm25.441-32.741c1.0676-0.8553 2.3801-1.5552 2.9167-1.5552 1.2705 0 0.70324 0.4619-2.3578 1.9198-2.3573 1.1226-2.3892 1.1018-0.55887-0.3646z"/>
 </g>
</svg>
