<?xml version="1.0" encoding="UTF-8" standalone="no"?>


<svg
   xmlns:dc="http://purl.org/dc/elements/1.1/"
   xmlns:cc="http://creativecommons.org/ns#"
   xmlns:rdf="http://www.w3.org/1999/02/22-rdf-syntax-ns#"
   xmlns:svg="http://www.w3.org/2000/svg"
   xmlns="http://www.w3.org/2000/svg"
   xmlns:xlink="http://www.w3.org/1999/xlink"
   xmlns:inkscape="http://www.inkscape.org/namespaces/inkscape"
   width="115"
   height="100"
   viewBox="0 0 115 99.999997"

   version="1.1">
 
  <g transform="translate(0,-952.36223)">
    
    <path
       style="fill:#000000"
       d="m 34.238703,1048.3843 c -2.375664,-0.4847 -2.298931,-5.6338 0.235009,-15.77 1.091754,-4.3672 2.815729,-15.9867 3.831055,-25.8211 l 1.846046,-17.88076 -8.778755,0.66271 c -8.288978,0.62573 -8.842596,0.54342 -9.923043,-1.47542 -0.843368,-1.57585 -0.857122,-3.27856 -0.0523,-6.4748 0.600593,-2.38517 1.091988,-8.39658 1.091988,-13.35868 0,-8.3265 0.173449,-9.11643 2.25,-10.24703 1.602666,-0.87259 10.88112,-1.29573 32.25,-1.47075 l 30,-0.2457 -13,1.3534 c -7.15,0.74437 -21.2125,1.39038 -31.25,1.43556 -10.0375,0.0452 -18.255692,0.41966 -18.262649,0.83216 -0.007,0.4125 -0.22183,6.98447 -0.477495,14.60438 l -0.464847,13.85438 8.977496,-0.71054 8.977495,-0.71054 0,3.1346 c 0,10.73193 -3.87727,37.85303 -7.693989,53.81873 l -0.535735,2.241 21.864862,-0.6188 c 12.025674,-0.3404 22.277027,-0.996 22.780784,-1.457 0.548154,-0.5015 -0.0094,-4.9192 -1.388583,-11.002 -1.671087,-7.3704 -2.490612,-15.0071 -2.981602,-27.7841 -0.372404,-9.69107 -0.501975,-18.14332 -0.287937,-18.78279 0.259557,-0.77547 3.112221,-1.1085 8.565681,-1 l 8.176519,0.16268 0.681387,-8 c 0.897106,-10.53269 2.926831,-21.5 3.979016,-21.5 1.143309,0 1.046661,0.84166 -0.631567,5.5 -0.884392,2.45485 -1.458006,7.94584 -1.484943,14.21482 -0.05304,12.34333 -0.444742,12.76094 -10.994514,11.72139 l -6.87056,-0.67701 0.44284,14.37041 c 0.478645,15.5323 1.669052,25.9615 4.029936,35.3067 1.105908,4.3775 1.222884,6.5438 0.445489,8.25 -1.039184,2.2807 -1.293201,2.3145 -17.825645,2.3733 -9.224292,0.033 -18.796439,0.3855 -21.271439,0.7837 -2.475,0.3983 -5.2875,0.5635 -6.25,0.3671 z"
       inkscape:connector-curvature="0" />
  </g>
</svg>
