<?xml version="1.0" encoding="UTF-8" standalone="no"?>
<!-- Created with Inkscape (http://www.inkscape.org/) -->

<svg
   xmlns:dc="http://purl.org/dc/elements/1.1/"
   xmlns:cc="http://creativecommons.org/ns#"
   xmlns:rdf="http://www.w3.org/1999/02/22-rdf-syntax-ns#"
   xmlns:svg="http://www.w3.org/2000/svg"
   xmlns="http://www.w3.org/2000/svg"
   xmlns:xlink="http://www.w3.org/1999/xlink"
   xmlns:inkscape="http://www.inkscape.org/namespaces/inkscape"
   width="115"
   height="100"
   viewBox="0 0 115 99.999997"
   id="svg2"
   version="1.1">
 
  <g transform="translate(0,-952.36223)">
    
    <path
       style="fill:#000000"
       d="m 71.05602,1048.2684 c -0.889374,-0.2041 -2.822414,-2.5858 -4.295645,-5.2926 -1.473231,-2.7068 -3.118723,-5.1935 -3.656649,-5.526 -0.537926,-0.3324 -2.974859,0.1581 -5.415405,1.0902 -6.467766,2.4701 -21.367529,1.6775 -27.413774,-1.4583 -5.203653,-2.6988 -13.273122,-10.8236 -15.581737,-15.6886 -2.880581,-6.0704 -4.7213761,-17.3501 -4.311265,-26.41772 0.314726,-6.95868 0.962495,-9.75091 3.53982,-15.25853 12.144919,-25.95309 44.767056,-33.81501 64.704121,-15.59366 12.921578,11.8096 15.88495,31.56089 7.311381,48.73141 l -3.17662,6.3619 6.206408,5.8152 c 3.413524,3.1984 6.206408,6.3073 6.206408,6.9087 0,0.6014 -2.101555,2.5467 -4.670121,4.3229 -2.568567,1.7762 -6.506067,4.6779 -8.75,6.4483 -5.441343,4.2931 -8.73898,6.0062 -10.696922,5.5568 z m 6.673667,-5.2211 c 2.354157,-2.17 6.791981,-5.363 9.861831,-7.0955 3.06985,-1.7325 5.581545,-3.4929 5.581545,-3.9119 0,-0.4191 -2.7,-3.2571 -6,-6.3067 -3.3,-3.0496 -6,-6.0457 -6,-6.6578 0,-0.6122 1.300978,-3.4687 2.891061,-6.3479 10.949418,-19.8261 3.923653,-43.8039 -15.651631,-53.41644 -5.194416,-2.55075 -6.736506,-2.81745 -16.23943,-2.80854 -9.429637,0.009 -11.134304,0.30183 -16.722373,2.87416 -11.107072,5.11289 -20.497356,17.7235 -23.31923,31.3164 -1.402295,6.75482 0.03889,19.54462 3.134709,27.81892 2.981564,7.9689 10.449616,15.4826 17.938906,18.0485 7.457529,2.5551 19.110097,2.5659 24.759064,0.023 l 4.241202,-1.9091 2.356738,2.214 c 1.296205,1.2177 3.157286,3.9894 4.135735,6.1592 0.978449,2.1698 2.44783,3.9451 3.265293,3.9451 0.817462,0 3.412423,-1.7755 5.76658,-3.9454 z m -37.568744,-32.5692 c -2.159127,-2.6016 -2.497372,-14.86281 -0.550636,-19.96027 2.096769,-5.49031 6.645999,-9.52515 10.739481,-9.52515 4.560624,0 9.276746,5.22439 10.697854,11.85078 1.343716,6.26553 0.857952,7.46254 -2.719779,6.70191 -2.250642,-0.47847 -3.6846,0.42603 -9.419259,5.94143 -3.720453,3.5782 -6.927853,6.5059 -7.127555,6.5059 -0.199703,0 -0.928751,-0.6816 -1.620106,-1.5146 z m 11.457262,-10.042 c 1.189702,-1.81575 2.494136,-2.44342 5.077911,-2.44342 2.945563,0 3.473591,-0.34387 3.454985,-2.25 -0.0445,-4.55931 -3.722083,-10.6603 -7.516581,-12.46977 l -3.644451,-1.73792 -3.826548,4.10226 c -5.489677,5.88523 -7.125509,12.728 -4.931475,20.62865 l 1.047829,3.7732 4.368683,-3.5799 c 2.402775,-1.9688 5.089116,-4.6793 5.969647,-6.0231 z"
       id="path4191"
       inkscape:connector-curvature="0" />
  </g>
</svg>
