<?xml version="1.0" encoding="UTF-8" standalone="no"?>
<svg xmlns:rdf="http://www.w3.org/1999/02/22-rdf-syntax-ns#" xmlns="http://www.w3.org/2000/svg" height="120.36" width="100.09" version="1.1" xmlns:cc="http://creativecommons.org/ns#" xmlns:xlink="http://www.w3.org/1999/xlink" viewBox="0 0 100.09449 120.3622" xmlns:dc="http://purl.org/dc/elements/1.1/">

 <g transform="translate(0 -932)">
  <path id="path4158" d="m64.286 1032c-0.5309-0.6658-1.4502-3.5318-2.0429-6.3689-1.8662-8.9328-1.7988-8.8833-12.082-8.8833-5.9165 0-9.2702 0.395-9.7303 1.1461-0.38613 0.6303-1.1709 3.7897-1.7439 7.0208l-1.0418 5.8748h-17.75-17.75l0.24953-3.1913c0.13724-1.7552 3.5482-12.214 7.58-23.241 7.0003-19.147 15.022-44.333 17.553-55.106 0.65047-2.7698 1.7394-5.5023 2.4199-6.072 0.81572-0.68301 8.1961-0.9468 21.662-0.77426l20.425 0.26171 2.6702 10.168c3.143 11.969 9.5405 30.935 21.973 65.14 1.6971 4.6693 2.8397 9.136 2.5392 9.926-0.40767 1.0719-2.1986 1.4407-7.0555 1.4531-3.58 0.01-9.7487 0.8732-13.708 1.9202-8.3434 2.2062-12.806 2.4349-14.168 0.7263zm13.688-2.1983c3.1675-0.7716 8.8907-1.4098 12.718-1.4181 8.3881-0.018 8.3051 0.2805 3.5035-12.604-4.2145-11.309-22.461-67.642-22.461-69.345 0-0.67833-0.51598-1.5551-1.1466-1.9483-1.0619-0.66213-39.275-0.58234-39.934 0.0834-0.16268 0.16413-2.4317 7.7544-5.0422 16.867-2.6105 9.1128-8.6344 27.588-13.386 41.055-4.752 13.467-8.64 25.017-8.64 25.666 0 0.8806 4.1062 1.1796 16.201 1.1796h16.201l1.6237-6.5214c0.89302-3.5868 2.1334-6.8484 2.7563-7.2481 0.62294-0.3997 5.5433-0.7334 10.934-0.7415l9.8015-0.015 0.94582 3.6315c0.5202 1.9973 1.452 5.7014 2.0707 8.2313 1.087 4.4452 1.2421 4.5987 4.6103 4.5654 1.917-0.019 6.0771-0.6659 9.2446-1.4375zm-34.599-37.34c-0.89513-1.4612 6.274-18.327 7.7903-18.327 1.3431 0 1.3125-0.0774 4.2027 10.601 1.519 5.6122 1.6878 7.3805 0.76088 7.9744-1.7887 1.1461-12.022 0.94674-12.754-0.24846zm11.768-2.1571c-0.2639-0.69382-1.2309-3.9621-2.1489-7.2629-0.91799-3.3008-1.9361-5.9959-2.2625-5.9891-0.84791 0.0177-5.7194 13.377-5.1042 13.998 0.28128 0.28378 2.6453 0.51596 5.2534 0.51596 3.5015 0 4.6165-0.33 4.2622-1.2615z"/>
 </g>
</svg>
