<?xml version="1.0" encoding="UTF-8" standalone="no"?>

<svg  xmlns:rdf="http://www.w3.org/1999/02/22-rdf-syntax-ns#" xmlns="http://www.w3.org/2000/svg" height="120" width="100" version="1.1" xmlns:cc="http://creativecommons.org/ns#" xmlns:xlink="http://www.w3.org/1999/xlink" viewBox="0 0 100 120" xmlns:dc="http://purl.org/dc/elements/1.1/">

 <g transform="translate(0 -932.36)">
  <path  d="m26.488 1033c-1.0981-1.3231-1.0283-4.1654 0.41313-16.835 1.6307-14.333 1.6366-16.967 0.09921-44.107-1.1358-20.051-1.3176-29.246-0.59527-30.116 0.74877-0.90221 7.5435-1.4313 24.279-1.8906 12.781-0.35079 27.354-0.91395 32.384-1.2514 8.3578-0.56081 9.1939-0.45285 9.7083 1.2537 1.1642 3.8617 3.7337 25.417 3.1436 26.372-0.33843 0.5476-4.5263 0.99883-9.3063 1.0027-4.78 0.004-11.728 0.29398-15.441 0.6446-6.5871 0.62212-6.75 0.70555-6.75 3.4579v2.8204l10.25 0.28499 10.25 0.28498 0.28383 10.75 0.28383 10.75h-8.5996c-9.7669 0-12.468 0.98255-12.468 4.5352 0 3.0162 0.56193 3.0462 15.825 0.847 6.4308-0.9266 11.674-1.2538 12.133-0.757 0.44439 0.4811 0.14903 5.8248-0.65635 11.875-0.80538 6.05-1.6719 12.856-1.9257 15.125l-0.46135 4.1249-26.207 0.6352c-14.414 0.3494-28.258 0.8941-30.764 1.2105-3.4621 0.4371-4.8741 0.1928-5.8778-1.0166zm37.435-2.3895 24-0.6893 0.6143-8c0.33786-4.4 1.1229-9.8 1.7444-12 1.9166-6.7836 1.6197-7.7963-2.1087-7.1928-1.7875 0.2894-5.3249 1.0367-7.8609 1.6608s-7.486 0.9991-11 0.8333l-6.3891-0.3013v-4.5-4.5l10.287-0.28539 10.287-0.28539-0.28706-9.2146-0.28706-9.2146-9.8214-0.1547c-5.4018-0.0851-10.058-0.39124-10.347-0.68034-1.0085-1.0085-0.7194-7.6772 0.38056-8.7771 0.6617-0.66171 7.235-1.3258 16.305-1.6473l15.196-0.53862-0.6103-3.601c-0.33566-1.9805-1.1632-7.5755-1.8389-12.433l-1.2286-8.8323-3.5177 0.55764c-1.9347 0.30671-15.982 0.85986-31.217 1.2292-19.831 0.48082-27.828 1.007-28.152 1.8522-0.24919 0.64937 0.18202 13.296 0.95824 28.103 1.3812 26.348 1.2576 34.985-0.72531 50.687-0.5393 4.2708-0.68267 8.247-0.31861 8.8361 0.4237 0.6855 2.691 0.8382 6.2997 0.4243 3.1008-0.3557 16.438-0.957 29.638-1.3361z"/>
 </g>
</svg>
