<?xml version="1.0" encoding="UTF-8" standalone="no"?>
<svg id="svg2" xmlns:rdf="http://www.w3.org/1999/02/22-rdf-syntax-ns#" xmlns="http://www.w3.org/2000/svg" height="120" width="120" version="1.1" xmlns:cc="http://creativecommons.org/ns#" xmlns:xlink="http://www.w3.org/1999/xlink" viewBox="0 0 120 120" xmlns:dc="http://purl.org/dc/elements/1.1/">

 <g transform="translate(0 -932.36)">
 
  <path id="path4315" d="m75.963 1031.5c-5.823-8.8863-11.823-16.25-13.241-16.25-0.3081 0-0.3978 4.8375-0.19932 10.75l0.36087 10.75-19 0.6037c-10.45 0.332-19.312 0.4335-19.694 0.2255-0.38172-0.2079-0.71776-12.63-0.74675-27.604s-0.50004-34.182-1.0468-42.685c-0.54674-8.5026-0.6366-15.817-0.19968-16.254 1.0554-1.0554 38.615-4.221 40.68-3.4286 1.341 0.51459 1.5722 2.1255 1.38 9.6172-0.12694 4.9495 0.02181 9.2517 0.33056 9.5604 0.30875 0.30876 2.8841-3.9606 5.7231-9.4875s5.3699-10.049 5.6244-10.049c0.25447 0 5.0722 0.71723 10.706 1.5938 5.6339 0.87662 14.068 1.6641 18.743 1.75 7.6822 0.14113 8.526 0.34856 8.77 2.1562 0.16708 1.2377-3.9784 7.9079-10.876 17.5-6.1304 8.525-11.381 16.111-11.668 16.857-0.3167 0.82342 4.3438 5.9893 11.857 13.143 11.519 10.968 12.311 11.96 11.398 14.286-1.46 3.722-27.48 26.697-30.247 26.707-1.7659 0.01-3.6752-2.1432-8.6547-9.7422zm23.604-4.8306c7.5351-6.5557 13.726-12.448 13.758-13.093 0.0319-0.6457-5.1111-6.0103-11.429-11.921-6.3179-5.9111-11.753-11.584-12.077-12.607-0.80188-2.5265 2.5975-8.0664 14.012-22.834 5.2539-6.7976 9.5525-12.674 9.5525-13.059 0-0.38466-7.5001-0.85813-16.667-1.0522-12.186-0.25792-16.779-0.68885-17.083-1.6028-0.99119-2.9749-3.3166-0.69436-7.225 7.0856-4.7334 9.4222-8.4519 14.555-9.6694 13.347-0.45314-0.44968-0.6833-5.5256-0.51148-11.28l0.31241-10.462-8.3282 0.54594c-4.5805 0.30027-13.44 1.0675-19.689 1.7049l-11.36 1.159 0.64967 5.075c0.35732 2.7912 0.89207 21.5 1.1883 41.575l0.53867 36.5 2.9221-0.056c1.6071-0.031 9.6408-0.143 17.853-0.25l14.93-0.1944-0.57255-10.853c-0.42416-8.0403-0.25316-11.051 0.65978-11.615 1.9035-1.1764 8.3809 5.7688 15.656 16.787 3.5657 5.4003 7.0224 9.639 7.6814 9.4194 0.65906-0.2197 7.3633-5.7632 14.898-12.319z"/>
 </g>
</svg>
