<?xml version="1.0" encoding="UTF-8" standalone="no"?>
<svg
   xmlns:dc="http://purl.org/dc/elements/1.1/"
   xmlns:cc="http://creativecommons.org/ns#"
   xmlns:rdf="http://www.w3.org/1999/02/22-rdf-syntax-ns#"
   xmlns:svg="http://www.w3.org/2000/svg"
   xmlns="http://www.w3.org/2000/svg"
   xmlns:inkscape="http://www.inkscape.org/namespaces/inkscape"
   height="120"
   width="500"
   version="1.1"
   viewBox="0 0 1000 120">
 
 
    
  <g transform="translate(0,-952.36223)" >
    
    <path
       style="fill:#000000; "
       d="m 34.238703,1048.3843 c -2.375664,-0.4847 -2.298931,-5.6338 0.235009,-15.77 1.091754,-4.3672 2.815729,-15.9867 3.831055,-25.8211 l 1.846046,-17.88076 -8.778755,0.66271 c -8.288978,0.62573 -8.842596,0.54342 -9.923043,-1.47542 -0.843368,-1.57585 -0.857122,-3.27856 -0.0523,-6.4748 0.600593,-2.38517 1.091988,-8.39658 1.091988,-13.35868 0,-8.3265 0.173449,-9.11643 2.25,-10.24703 1.602666,-0.87259 10.88112,-1.29573 32.25,-1.47075 l 30,-0.2457 -13,1.3534 c -7.15,0.74437 -21.2125,1.39038 -31.25,1.43556 -10.0375,0.0452 -18.255692,0.41966 -18.262649,0.83216 -0.007,0.4125 -0.22183,6.98447 -0.477495,14.60438 l -0.464847,13.85438 8.977496,-0.71054 8.977495,-0.71054 0,3.1346 c 0,10.73193 -3.87727,37.85303 -7.693989,53.81873 l -0.535735,2.241 21.864862,-0.6188 c 12.025674,-0.3404 22.277027,-0.996 22.780784,-1.457 0.548154,-0.5015 -0.0094,-4.9192 -1.388583,-11.002 -1.671087,-7.3704 -2.490612,-15.0071 -2.981602,-27.7841 -0.372404,-9.69107 -0.501975,-18.14332 -0.287937,-18.78279 0.259557,-0.77547 3.112221,-1.1085 8.565681,-1 l 8.176519,0.16268 0.681387,-8 c 0.897106,-10.53269 2.926831,-21.5 3.979016,-21.5 1.143309,0 1.046661,0.84166 -0.631567,5.5 -0.884392,2.45485 -1.458006,7.94584 -1.484943,14.21482 -0.05304,12.34333 -0.444742,12.76094 -10.994514,11.72139 l -6.87056,-0.67701 0.44284,14.37041 c 0.478645,15.5323 1.669052,25.9615 4.029936,35.3067 1.105908,4.3775 1.222884,6.5438 0.445489,8.25 -1.039184,2.2807 -1.293201,2.3145 -17.825645,2.3733 -9.224292,0.033 -18.796439,0.3855 -21.271439,0.7837 -2.475,0.3983 -5.2875,0.5635 -6.25,0.3671 z"
       inkscape:connector-curvature="0" />
      <!-- <animateMotion path="M 0 0 L 100 100" 
           begin="3s" dur="6s" repeatCount="indefinite" fill="freeze" />
  
  -->
  </g>
   <g transform="translate(75 -932.36)">
  <path  d="m26.488 1033c-1.0981-1.3231-1.0283-4.1654 0.41313-16.835 1.6307-14.333 1.6366-16.967 0.09921-44.107-1.1358-20.051-1.3176-29.246-0.59527-30.116 0.74877-0.90221 7.5435-1.4313 24.279-1.8906 12.781-0.35079 27.354-0.91395 32.384-1.2514 8.3578-0.56081 9.1939-0.45285 9.7083 1.2537 1.1642 3.8617 3.7337 25.417 3.1436 26.372-0.33843 0.5476-4.5263 0.99883-9.3063 1.0027-4.78 0.004-11.728 0.29398-15.441 0.6446-6.5871 0.62212-6.75 0.70555-6.75 3.4579v2.8204l10.25 0.28499 10.25 0.28498 0.28383 10.75 0.28383 10.75h-8.5996c-9.7669 0-12.468 0.98255-12.468 4.5352 0 3.0162 0.56193 3.0462 15.825 0.847 6.4308-0.9266 11.674-1.2538 12.133-0.757 0.44439 0.4811 0.14903 5.8248-0.65635 11.875-0.80538 6.05-1.6719 12.856-1.9257 15.125l-0.46135 4.1249-26.207 0.6352c-14.414 0.3494-28.258 0.8941-30.764 1.2105-3.4621 0.4371-4.8741 0.1928-5.8778-1.0166zm37.435-2.3895 24-0.6893 0.6143-8c0.33786-4.4 1.1229-9.8 1.7444-12 1.9166-6.7836 1.6197-7.7963-2.1087-7.1928-1.7875 0.2894-5.3249 1.0367-7.8609 1.6608s-7.486 0.9991-11 0.8333l-6.3891-0.3013v-4.5-4.5l10.287-0.28539 10.287-0.28539-0.28706-9.2146-0.28706-9.2146-9.8214-0.1547c-5.4018-0.0851-10.058-0.39124-10.347-0.68034-1.0085-1.0085-0.7194-7.6772 0.38056-8.7771 0.6617-0.66171 7.235-1.3258 16.305-1.6473l15.196-0.53862-0.6103-3.601c-0.33566-1.9805-1.1632-7.5755-1.8389-12.433l-1.2286-8.8323-3.5177 0.55764c-1.9347 0.30671-15.982 0.85986-31.217 1.2292-19.831 0.48082-27.828 1.007-28.152 1.8522-0.24919 0.64937 0.18202 13.296 0.95824 28.103 1.3812 26.348 1.2576 34.985-0.72531 50.687-0.5393 4.2708-0.68267 8.247-0.31861 8.8361 0.4237 0.6855 2.691 0.8382 6.2997 0.4243 3.1008-0.3557 16.438-0.957 29.638-1.3361z"/>
 </g>
  <g  transform="translate(150 -932.36)">
  <path  d="m49.155 1040.1c-11.917-1.3068-22.952-8.0399-29.747-18.15-5.6795-8.4504-7.6852-15.454-7.6301-26.646 0.12482-25.385 15.033-41.361 44.758-47.964 3.745-0.83183 27.601-0.83011 30.917 0.002 3.4267 0.86006 3.8316 2.3823 2.1339 8.0233-0.78724 2.6158-1.4314 8.4937-1.4314 13.062 0 6.8931-0.29766 8.4624-1.75 9.2262-0.9625 0.50615-6.4559 0.99566-12.207 1.0878-12.257 0.19634-16.114 1.7775-20.379 8.3546-6.6594 10.27-0.47089 22.479 11.554 22.794l3.2821 0.086-2.7608 0.8305c-8.017 2.4115-16.739-5.7209-16.739-15.607 0-6.5321 5.5535-14.052 12.5-16.927 1.1-0.45519 6.95-1.0842 13-1.3979l11-0.57026 0.62609-9.5842c0.34435-5.2713 1.1319-10.529 1.75-11.684 0.61815-1.155 1.1239-3.089 1.1239-4.2976 0-2.1934-0.03022-2.1966-15.75-1.6557-23.146 0.79634-35.665 4.7646-46.62 14.777-10.264 9.3807-14.188 19.489-13.401 34.526 0.39913 7.6305 1.0246 10.362 3.6642 16.003 4.1598 8.8894 8.608 14.153 15.414 18.24 9.04 5.4283 14.873 6.4762 32.694 5.8733 14.335-0.485 22.237-1.6842 24.355-3.6958 0.47039-0.4468-0.52689-6.3675-2.2162-13.157-1.6893-6.7896-3.2015-13.225-3.3605-14.301-0.16164-1.0938-1.3889-2.2622-2.7838-2.6503-2.2977-0.6394-2.2381-0.7021 0.75525-0.7939 2.5574-0.078 3.25 0.3038 3.25 1.7937 0 1.6174 4.7497 21.524 6.4034 26.836 0.98312 3.1586-1.0427 4.5133-9.5477 6.3843-7.8434 1.7255-22.944 2.2688-32.856 1.182zm25.441-32.741c1.0676-0.8553 2.3801-1.5552 2.9167-1.5552 1.2705 0 0.70324 0.4619-2.3578 1.9198-2.3573 1.1226-2.3892 1.1018-0.55887-0.3646z"/>
 </g>
  <g transform="translate(230 -932.36)">
  <path  d="m3.7436 1037.5c-0.3509-0.9144-0.1224-9.3715 0.50776-18.794 2.2781-34.061 2.39-39.348 1.1333-53.532-1.0687-12.062-1.0485-14.443 0.13234-15.568 1.0223-0.97407 6.193-1.4219 19.394-1.6797l18-0.35152 0.27908 13.882 0.27908 13.882 4.5539-0.62418c2.5046-0.34329 5.0053-0.90316 5.557-1.2442 0.61196-0.37821 0.87209-5.3034 0.66707-12.63-0.27696-9.8975-0.07223-12.149 1.1639-12.799 1.8419-0.96909 32.64-3.3072 33.835-2.5686 0.47243 0.29198 1.1762 12.134 1.5639 26.317 0.65936 24.119 1.4814 38.173 3.1957 54.632 0.85758 8.2338 0.48516 8.6171-8.3938 8.6387-3.9131 0.01-7.5121 0.6479-9.5 1.6851-2.2523 1.1752-5.8665 1.6937-12.2 1.75l-9 0.08-0.09553-15-0.09553-15-6.2041 0.1c-3.4122 0.055-6.6437 0.5392-7.1811 1.0766-0.62902 0.629-0.65496 5.5802-0.07281 13.9 0.49732 7.1079 0.62181 13.205 0.27663 13.549-0.34517 0.3439-8.8467 0.926-18.892 1.2935-16.485 0.6031-18.327 0.5062-18.903-0.9944zm20.667-0.9245c13.218 0 15.485-0.2229 15.4-1.5138-1.9066-29.001-2.1993-27.912 7.7163-28.708 8.4361-0.6772 9.8912 0.5831 9.8634 8.5427-0.01089 3.1232-0.45575 8.6927-0.98857 12.377-0.53282 3.6839-0.68531 7.4366-0.33888 8.3394 0.72355 1.8856 3.5746 1.7369 17.347-0.9045 4.675-0.8966 10.836-1.6308 13.691-1.6316 2.855-0.0007 5.4307-0.3892 5.7237-0.8633 0.29301-0.4741-0.12057-4.9014-0.91908-9.8385-1.2968-8.0181-3.4731-50.816-3.4894-68.62l-0.0062-6.8203-14.25 0.6269c-21.001 0.92391-18.873-0.76491-18.107 14.371 0.73394 14.501 1.2677 13.511-7.8953 14.655-7.6577 0.95676-8.044 0.081-7.1401-16.187l0.70174-12.63-4.4046 0.80562c-2.4225 0.44309-10.255 1.0742-17.405 1.4025l-13 0.59691 0.18433 6.5c0.44001 15.516 0.38589 45.914-0.089917 50.5-2.4857 23.961-2.7267 28.8-1.4724 29.575 0.70538 0.4359 1.754 0.4848 2.3303 0.1086 0.57626-0.3762 8.0227-0.684 16.548-0.684z"/>
 </g>
  <g transform="translate(300 -932.36)">

  <path  d="m69.945 1040.1c-0.73968-0.6121-2.6064-3.3628-4.1482-6.1128s-6.2257-9.725-10.409-15.5l-7.6053-10.5-0.5 14-0.5 14-16.347 0.2752-16.347 0.2752 0.62776-4.7752c1.9052-14.492 5.7164-55.664 6.2542-67.562 0.34273-7.5828 0.91834-13.969 1.2792-14.192 1.4957-0.92438 24.916-3.5029 26.455-2.9126 0.91938 0.35281 2.8354 2.9382 4.2579 5.7452 3.2572 6.4279 15.288 25.647 16.055 25.647 0.3152 0 0.30411-6.289-0.02463-13.976-0.43107-10.079-0.27489-14.175 0.56021-14.691 0.63685-0.3936 4.8354-0.60049 9.3301-0.45977s10.983-0.25382 14.418-0.87676c3.4353-0.62294 6.5754-0.76454 6.978-0.31467 0.40259 0.44987 0.41751 8.018 0.0332 16.818l-0.69882 16-0.16521-15.634-0.16521-15.634-13.25 0.46447c-7.2875 0.25545-13.635 0.55623-14.105 0.66839-0.46998 0.11217-0.8028 6.4883-0.7396 14.169 0.11247 13.668-0.5451 17.424-2.8057 16.027-1.4627-0.90399-6.2989-8.5309-13.572-21.404-3.2137-5.688-6.3348-10.512-6.9356-10.721-0.60088-0.20829-6.2675 0.17628-12.593 0.8546l-11.5 1.2333-0.6866 10.987c-1.2538 20.063-2.8854 38.795-4.869 55.895-1.0787 9.2995-1.845 17.011-1.7028 17.137 0.14215 0.126 6.7083-0.01 14.591-0.3011l14.333-0.5301-0.18142-13.107c-0.22425-16.201-0.27872-15.607 1.4307-15.607 1.5905 0 15.87 18.992 20.657 27.475 2.8232 5.0023 3.4395 5.5254 6.5117 5.5254 1.8664 0 6.6609-0.862 10.655-1.9155 3.9936-1.0536 8.9487-2.199 11.011-2.5454l3.75-0.6298v-7.6213c0-4.1918 0.16545-7.4339 0.36768-7.2047 0.77678 0.8803 1.3479 13.759 0.65956 14.873-0.72363 1.1709-14.786 5.1825-24.101 6.8756-3.3748 0.6134-5.3415 0.5448-6.2641-0.2187z"/>
 </g>
 <g  transform="translate(375 -932.36)">
  <path  d="m19.602 1046.9c-0.29071-0.4796-0.85344-5.6877-1.2505-11.574l-0.72195-10.702 2.3662-0.4855c1.3014-0.267 3.554-0.7348 5.0059-1.0395 1.4518-0.3048 2.9888-1.3455 3.4155-2.3128 0.42669-0.9672 0.97484-10.196 1.2181-20.509l0.44234-18.75h-3.026c-6.1606 0-6.1896-0.0638-6.1896-13.607v-12.393l17.25 0.13361c12.266 0.095 15.805 0.35862 12.25 0.9124-2.75 0.42833-10.062 0.8182-16.25 0.86638l-11.25 0.0876v11 11h3.3776c5.8075 0 6.0101 0.87329 5.2562 22.647-0.37267 10.762-1.1335 20.419-1.6908 21.46-0.76195 1.4237-2.1206 1.8933-5.4781 1.8933-4.372 0-4.4647 0.068-4.4577 3.25 0.0039 1.7875 0.28333 6.175 0.62094 9.75l0.61383 6.5 21.129-0.3182c11.621-0.1751 22.817-0.7549 24.879-1.2886l3.75-0.9703v-7.8797c0-4.3338 0.27314-8.5914 0.60699-9.4614 0.48368-1.2605-0.11864-1.5818-2.9648-1.5818-2.5079 0-3.8802-0.5762-4.607-1.9343-1.1229-2.0982-1.4595-35.694-0.41018-40.941 0.42117-2.1058 1.2098-3.125 2.4182-3.125 4.664 0 4.9568-0.68556 4.9568-11.607v-10.393l-7.25-0.12836-7.25-0.12835 5.8278-0.99671c4.1-0.70121 6.5459-0.66951 8.25 0.10691 2.3571 1.074 2.4222 1.4104 2.4222 12.526v11.422l-3.75 0.88595-3.75 0.88595-0.2942 17.463c-0.36997 21.961-0.05939 23.963 3.7171 23.963 4.4621 0 4.9358 1.4576 4.2243 13l-0.64719 10.5-20.5 0.6037c-11.275 0.332-23.027 0.9494-26.116 1.3719-3.0886 0.4225-5.8535 0.3758-6.1442-0.1037z"/>
 </g>
   <g  transform="translate(415 -932.36)">
  <path  d="m49.155 1040.1c-11.917-1.3068-22.952-8.0399-29.747-18.15-5.6795-8.4504-7.6852-15.454-7.6301-26.646 0.12482-25.385 15.033-41.361 44.758-47.964 3.745-0.83183 27.601-0.83011 30.917 0.002 3.4267 0.86006 3.8316 2.3823 2.1339 8.0233-0.78724 2.6158-1.4314 8.4937-1.4314 13.062 0 6.8931-0.29766 8.4624-1.75 9.2262-0.9625 0.50615-6.4559 0.99566-12.207 1.0878-12.257 0.19634-16.114 1.7775-20.379 8.3546-6.6594 10.27-0.47089 22.479 11.554 22.794l3.2821 0.086-2.7608 0.8305c-8.017 2.4115-16.739-5.7209-16.739-15.607 0-6.5321 5.5535-14.052 12.5-16.927 1.1-0.45519 6.95-1.0842 13-1.3979l11-0.57026 0.62609-9.5842c0.34435-5.2713 1.1319-10.529 1.75-11.684 0.61815-1.155 1.1239-3.089 1.1239-4.2976 0-2.1934-0.03022-2.1966-15.75-1.6557-23.146 0.79634-35.665 4.7646-46.62 14.777-10.264 9.3807-14.188 19.489-13.401 34.526 0.39913 7.6305 1.0246 10.362 3.6642 16.003 4.1598 8.8894 8.608 14.153 15.414 18.24 9.04 5.4283 14.873 6.4762 32.694 5.8733 14.335-0.485 22.237-1.6842 24.355-3.6958 0.47039-0.4468-0.52689-6.3675-2.2162-13.157-1.6893-6.7896-3.2015-13.225-3.3605-14.301-0.16164-1.0938-1.3889-2.2622-2.7838-2.6503-2.2977-0.6394-2.2381-0.7021 0.75525-0.7939 2.5574-0.078 3.25 0.3038 3.25 1.7937 0 1.6174 4.7497 21.524 6.4034 26.836 0.98312 3.1586-1.0427 4.5133-9.5477 6.3843-7.8434 1.7255-22.944 2.2688-32.856 1.182zm25.441-32.741c1.0676-0.8553 2.3801-1.5552 2.9167-1.5552 1.2705 0 0.70324 0.4619-2.3578 1.9198-2.3573 1.1226-2.3892 1.1018-0.55887-0.3646z"/>
 </g>
  <g transform="translate(500 -932)">
  <path id="path4158" d="m64.286 1032c-0.5309-0.6658-1.4502-3.5318-2.0429-6.3689-1.8662-8.9328-1.7988-8.8833-12.082-8.8833-5.9165 0-9.2702 0.395-9.7303 1.1461-0.38613 0.6303-1.1709 3.7897-1.7439 7.0208l-1.0418 5.8748h-17.75-17.75l0.24953-3.1913c0.13724-1.7552 3.5482-12.214 7.58-23.241 7.0003-19.147 15.022-44.333 17.553-55.106 0.65047-2.7698 1.7394-5.5023 2.4199-6.072 0.81572-0.68301 8.1961-0.9468 21.662-0.77426l20.425 0.26171 2.6702 10.168c3.143 11.969 9.5405 30.935 21.973 65.14 1.6971 4.6693 2.8397 9.136 2.5392 9.926-0.40767 1.0719-2.1986 1.4407-7.0555 1.4531-3.58 0.01-9.7487 0.8732-13.708 1.9202-8.3434 2.2062-12.806 2.4349-14.168 0.7263zm13.688-2.1983c3.1675-0.7716 8.8907-1.4098 12.718-1.4181 8.3881-0.018 8.3051 0.2805 3.5035-12.604-4.2145-11.309-22.461-67.642-22.461-69.345 0-0.67833-0.51598-1.5551-1.1466-1.9483-1.0619-0.66213-39.275-0.58234-39.934 0.0834-0.16268 0.16413-2.4317 7.7544-5.0422 16.867-2.6105 9.1128-8.6344 27.588-13.386 41.055-4.752 13.467-8.64 25.017-8.64 25.666 0 0.8806 4.1062 1.1796 16.201 1.1796h16.201l1.6237-6.5214c0.89302-3.5868 2.1334-6.8484 2.7563-7.2481 0.62294-0.3997 5.5433-0.7334 10.934-0.7415l9.8015-0.015 0.94582 3.6315c0.5202 1.9973 1.452 5.7014 2.0707 8.2313 1.087 4.4452 1.2421 4.5987 4.6103 4.5654 1.917-0.019 6.0771-0.6659 9.2446-1.4375zm-34.599-37.34c-0.89513-1.4612 6.274-18.327 7.7903-18.327 1.3431 0 1.3125-0.0774 4.2027 10.601 1.519 5.6122 1.6878 7.3805 0.76088 7.9744-1.7887 1.1461-12.022 0.94674-12.754-0.24846zm11.768-2.1571c-0.2639-0.69382-1.2309-3.9621-2.1489-7.2629-0.91799-3.3008-1.9361-5.9959-2.2625-5.9891-0.84791 0.0177-5.7194 13.377-5.1042 13.998 0.28128 0.28378 2.6453 0.51596 5.2534 0.51596 3.5015 0 4.6165-0.33 4.2622-1.2615z"/>
 </g>
  <g transform="translate(575 -932.36)">
  <path  d="m20.217 1040.4c-0.03336-0.1375-0.14586-21.062-0.25-46.5l-0.18935-46.25 6.5 0.005c3.575 0.003 12.244-0.53076 19.264-1.1855 9.4379-0.88026 13.057-0.898 13.887-0.0681 0.82993 0.82993 0.69484 5.895-0.51838 19.436-1.6022 17.882-2.3173 37.462-1.4015 38.378 0.25182 0.2519 6.1092-0.062 13.016-0.6975 6.9072-0.6355 13.337-0.8567 14.289-0.4916 1.4674 0.5631 1.6103 1.3817 0.9412 5.3941-0.43381 2.6017-1.0563 10.13-1.3832 16.73l-0.59447 12-19.5 0.6537c-10.725 0.3596-23.87 1.1471-29.211 1.75-9.394 1.0606-14.724 1.3643-14.85 0.8463zm37.422-3.3466 24.861-0.6674-0.62403-4.7042c-0.5496-4.1431 0.40704-15.205 2.0134-23.282l0.54695-2.75h-12.998c-7.1487 0-13.709-0.2732-14.579-0.607-1.328-0.5096-1.5818-2.6534-1.5818-13.36 0-7.0141 0.68932-19.627 1.5318-28.028 0.84251-8.4012 1.3113-15.496 1.0417-15.765-0.74738-0.74739-4.4093-0.53909-11.574 0.65832-3.575 0.59752-10.588 1.0898-15.583 1.094-4.9958 0.004-9.3151 0.23928-9.5983 0.52251-0.28323 0.28322-0.12847 2.8707 0.34391 5.75 1.0855 6.6164 1.2758 50.789 0.29762 69.086l-0.74047 13.851 5.8903-0.5653c3.2397-0.3109 17.078-0.8656 30.752-1.2327z"/>
 </g>
</svg>
